<svg width="1920" height="875" viewBox="0 0 1920 875" fill="none" xmlns="http://www.w3.org/2000/svg">
<mask id="mask0_278_44423" style="mask-type:alpha" maskUnits="userSpaceOnUse" x="0" y="0" width="1920" height="1272">
<rect x="0.5" y="0.5" width="1919" height="1271" fill="url(#paint0_linear_278_44423)" stroke="#F2EBFF"/>
</mask>
<g mask="url(#mask0_278_44423)">
<path d="M2216.17 636.002C2216.17 803.874 2075.75 955.997 1848.38 1066.18C1621.05 1176.35 1306.96 1244.5 960 1244.5C613.039 1244.5 298.948 1176.35 71.6175 1066.18C-155.748 955.997 -296.171 803.874 -296.171 636.002C-296.171 468.13 -155.748 316.007 71.6175 205.823C298.948 95.6544 613.039 27.5 960 27.5C1306.96 27.5 1621.05 95.6544 1848.38 205.823C2075.75 316.007 2216.17 468.13 2216.17 636.002Z" stroke="#F2EBFF"/>
<path d="M2165.01 636.003C2165.01 797.028 2030.31 942.952 1812.21 1048.65C1594.13 1154.33 1292.83 1219.71 960 1219.71C627.167 1219.71 325.868 1154.33 107.795 1048.65C-110.312 942.952 -245.008 797.028 -245.008 636.003C-245.008 474.978 -110.312 329.053 107.795 223.355C325.868 117.674 627.167 52.2949 960 52.2949C1292.83 52.2949 1594.13 117.674 1812.21 223.355C2030.31 329.053 2165.01 474.978 2165.01 636.003Z" stroke="#F2EBFF"/>
<path d="M2114.24 636.002C2114.24 790.234 1985.23 930.008 1776.31 1031.25C1567.42 1132.48 1278.82 1195.11 960 1195.11C641.185 1195.11 352.577 1132.48 143.691 1031.25C-65.2289 930.008 -194.243 790.234 -194.243 636.002C-194.243 481.771 -65.2289 341.996 143.691 240.75C352.577 139.521 641.185 76.8955 960 76.8955C1278.82 76.8955 1567.42 139.521 1776.31 240.75C1985.23 341.996 2114.24 481.771 2114.24 636.002Z" stroke="#F2EBFF"/>
<path d="M2060.51 636.002C2060.51 783.042 1937.51 916.306 1738.31 1012.84C1539.15 1109.36 1263.98 1169.07 960.001 1169.07C656.025 1169.07 380.851 1109.36 181.689 1012.84C-17.5065 916.306 -140.506 783.042 -140.506 636.002C-140.506 488.962 -17.5065 355.698 181.689 259.165C380.851 162.648 656.025 102.938 960.001 102.938C1263.98 102.938 1539.15 162.648 1738.31 259.165C1937.51 355.698 2060.51 488.962 2060.51 636.002Z" stroke="#F2EBFF"/>
<path d="M2006.9 636.002C2006.9 775.869 1889.9 902.638 1700.41 994.47C1510.94 1086.29 1249.17 1143.09 959.999 1143.09C670.826 1143.09 409.054 1086.29 219.593 994.47C30.0984 902.638 -86.9011 775.869 -86.9011 636.002C-86.9011 496.136 30.0984 369.367 219.593 277.535C409.054 185.719 670.826 128.916 959.999 128.916C1249.17 128.916 1510.94 185.719 1700.41 277.535C1889.9 369.367 2006.9 496.136 2006.9 636.002Z" stroke="#F2EBFF"/>
<path d="M1953.3 636.002C1953.3 768.695 1842.3 888.969 1662.5 976.1C1482.74 1063.21 1234.37 1117.11 960 1117.11C685.63 1117.11 437.259 1063.21 257.499 976.1C77.7048 888.969 -33.2947 768.695 -33.2947 636.002C-33.2947 503.309 77.7048 383.034 257.499 295.903C437.259 208.789 685.63 154.894 960 154.894C1234.37 154.894 1482.74 208.789 1662.5 295.903C1842.3 383.034 1953.3 503.309 1953.3 636.002Z" stroke="#F2EBFF"/>
<path d="M1899.69 636.002C1899.69 761.521 1794.69 875.302 1624.6 957.732C1454.54 1040.14 1219.57 1091.13 960 1091.13C700.433 1091.13 465.463 1040.14 295.404 957.732C125.311 875.302 20.3113 761.521 20.3113 636.002C20.3113 510.483 125.311 396.703 295.404 314.273C465.463 231.86 700.433 180.872 960 180.872C1219.57 180.872 1454.54 231.86 1624.6 314.273C1794.69 396.703 1899.69 510.483 1899.69 636.002Z" stroke="#F2EBFF"/>
<path d="M1846.08 636.002C1846.08 754.348 1747.08 861.633 1586.69 939.362C1426.33 1017.07 1204.76 1065.15 960 1065.15C715.236 1065.15 493.668 1017.07 333.309 939.362C172.916 861.633 73.917 754.348 73.917 636.002C73.917 517.657 172.916 410.371 333.309 332.643C493.668 254.931 715.236 206.851 960 206.851C1204.76 206.851 1426.33 254.931 1586.69 332.643C1747.08 410.371 1846.08 517.657 1846.08 636.002Z" stroke="#F2EBFF"/>
<path d="M1792.48 636.003C1792.48 747.175 1699.48 847.966 1548.79 920.994C1398.13 994.005 1189.96 1039.18 960.001 1039.18C730.039 1039.18 521.872 994.005 371.214 920.994C220.522 847.966 127.523 747.175 127.523 636.003C127.523 524.831 220.522 424.04 371.214 351.012C521.872 278.001 730.039 232.829 960.001 232.829C1189.96 232.829 1398.13 278.001 1548.79 351.012C1699.48 424.04 1792.48 524.831 1792.48 636.003Z" stroke="#F2EBFF"/>
<path d="M1738.87 636.002C1738.87 740 1651.87 834.297 1510.88 902.623C1369.93 970.933 1175.16 1013.2 960.001 1013.2C744.842 1013.2 550.077 970.933 409.12 902.623C268.128 834.297 181.129 740 181.129 636.002C181.129 532.004 268.128 437.708 409.12 369.381C550.077 301.071 744.842 258.807 960.001 258.807C1175.16 258.807 1369.93 301.071 1510.88 369.381C1651.87 437.708 1738.87 532.004 1738.87 636.002Z" stroke="#F2EBFF"/>
<path d="M1689.39 636.003C1689.39 733.379 1607.93 821.681 1475.89 885.668C1343.89 949.638 1161.5 989.219 960 989.219C758.505 989.219 576.111 949.638 444.108 885.668C312.071 821.681 230.611 733.379 230.611 636.003C230.611 538.627 312.071 450.325 444.108 386.338C576.111 322.368 758.505 282.787 960 282.787C1161.5 282.787 1343.89 322.368 1475.89 386.338C1607.93 450.325 1689.39 538.627 1689.39 636.003Z" stroke="#F2EBFF"/>
<path d="M1631.66 636.003C1631.66 725.654 1556.66 806.961 1435.07 865.885C1313.52 924.793 1145.55 961.242 960 961.242C774.447 961.242 606.485 924.793 484.929 865.885C363.339 806.961 288.34 725.654 288.34 636.003C288.34 546.352 363.339 465.045 484.929 406.12C606.485 347.213 774.447 310.764 960 310.764C1145.55 310.764 1313.52 347.213 1435.07 406.12C1556.66 465.045 1631.66 546.352 1631.66 636.003Z" stroke="#F2EBFF"/>
<path d="M1578.05 636.002C1578.05 718.479 1509.05 793.292 1397.17 847.515C1285.31 901.721 1130.75 935.263 959.999 935.263C789.249 935.263 634.688 901.721 522.833 847.515C410.944 793.292 341.945 718.479 341.945 636.002C341.945 553.525 410.944 478.712 522.833 424.489C634.688 370.283 789.249 336.741 959.999 336.741C1130.75 336.741 1285.31 370.283 1397.17 424.489C1509.05 478.712 1578.05 553.525 1578.05 636.002Z" stroke="#F2EBFF"/>
<path d="M1524.45 636.003C1524.45 711.306 1461.45 779.624 1359.26 829.146C1257.11 878.652 1115.95 909.285 960 909.285C804.053 909.285 662.893 878.652 560.739 829.146C458.551 779.624 395.552 711.306 395.552 636.003C395.552 560.699 458.551 492.381 560.739 442.859C662.893 393.353 804.053 362.72 960 362.72C1115.95 362.72 1257.11 393.353 1359.26 442.859C1461.45 492.381 1524.45 560.699 1524.45 636.003Z" stroke="#F2EBFF"/>
<path d="M1466.72 636.003C1466.72 703.581 1410.18 764.905 1318.44 809.364C1226.73 853.807 1100.01 881.309 960 881.309C819.994 881.309 693.267 853.807 601.56 809.364C509.818 764.905 453.281 703.581 453.281 636.003C453.281 568.425 509.818 507.101 601.56 462.641C693.267 418.199 819.994 390.696 960 390.696C1100.01 390.696 1226.73 418.199 1318.44 462.641C1410.18 507.101 1466.72 568.425 1466.72 636.003Z" stroke="#F2EBFF"/>
<path d="M1413.11 636.003C1413.11 696.407 1362.58 751.237 1280.54 790.995C1198.53 830.737 1085.2 855.332 960.001 855.332C834.797 855.332 721.471 830.737 639.465 790.995C557.424 751.237 506.886 696.407 506.886 636.003C506.886 575.599 557.424 520.769 639.465 481.011C721.471 441.269 834.797 416.675 960.001 416.675C1085.2 416.675 1198.53 441.269 1280.54 481.011C1362.58 520.769 1413.11 575.599 1413.11 636.003Z" stroke="#F2EBFF"/>
<path d="M1359.64 636.003C1359.64 689.25 1315.08 737.601 1242.72 772.669C1170.39 807.721 1070.44 829.415 959.999 829.415C849.563 829.415 749.607 807.721 677.278 772.669C604.914 737.601 560.362 689.25 560.362 636.003C560.362 582.755 604.914 534.404 677.278 499.335C749.607 464.284 849.563 442.59 959.999 442.59C1070.44 442.59 1170.39 464.284 1242.72 499.335C1315.08 534.404 1359.64 582.755 1359.64 636.003Z" stroke="#F2EBFF"/>
<path d="M1305.9 636.003C1305.9 682.059 1267.36 723.9 1204.72 754.256C1142.12 784.595 1055.6 803.374 960 803.374C864.402 803.374 777.88 784.595 715.275 754.256C652.635 723.9 614.098 682.059 614.098 636.003C614.098 589.946 652.635 548.105 715.275 517.749C777.88 487.41 864.402 468.631 960 468.631C1055.6 468.631 1142.12 487.41 1204.72 517.749C1267.36 548.105 1305.9 589.946 1305.9 636.003Z" stroke="#F2EBFF"/>
<path d="M1252.43 636.003C1252.43 674.904 1219.87 710.265 1166.91 735.932C1113.99 761.581 1040.83 777.46 960.001 777.46C879.17 777.46 806.016 761.581 753.089 735.932C700.127 710.265 667.575 674.904 667.575 636.003C667.575 597.103 700.127 561.741 753.089 536.075C806.016 510.425 879.17 494.547 960.001 494.547C1040.83 494.547 1113.99 510.425 1166.91 536.075C1219.87 561.741 1252.43 597.103 1252.43 636.003Z" stroke="#F2EBFF"/>
<path d="M1198.69 636.002C1198.69 667.712 1172.15 696.563 1128.91 717.517C1085.71 738.454 1025.99 751.418 960 751.418C894.008 751.418 834.288 738.454 791.084 717.517C747.846 696.563 721.309 667.712 721.309 636.002C721.309 604.293 747.846 575.441 791.084 554.488C834.288 533.551 894.008 520.587 960 520.587C1025.99 520.587 1085.71 533.551 1128.91 554.488C1172.15 575.441 1198.69 604.293 1198.69 636.002Z" stroke="#F2EBFF"/>
<path d="M1153.33 636.002C1153.33 661.642 1131.87 684.998 1096.84 701.974C1061.85 718.933 1013.47 729.437 960 729.437C906.534 729.437 858.153 718.933 823.158 701.974C788.129 684.998 766.668 661.642 766.668 636.002C766.668 610.363 788.129 587.007 823.158 570.031C858.153 553.072 906.534 542.568 960 542.568C1013.47 542.568 1061.85 553.072 1096.84 570.031C1131.87 587.007 1153.33 610.363 1153.33 636.002Z" stroke="#F2EBFF"/>
<path d="M1099.73 636.003C1099.73 654.468 1084.26 671.33 1058.94 683.605C1033.64 695.862 998.663 703.458 959.999 703.458C921.336 703.458 886.357 695.862 861.063 683.605C835.734 671.33 820.273 654.468 820.273 636.003C820.273 617.537 835.734 600.675 861.063 588.401C886.357 576.143 921.336 568.547 959.999 568.547C998.663 568.547 1033.64 576.143 1058.94 588.401C1084.26 600.675 1099.73 617.537 1099.73 636.003Z" stroke="#F2EBFF"/>
<path d="M1054.37 636.003C1054.37 648.398 1043.98 659.764 1026.86 668.061C1009.78 676.341 986.138 681.477 960 681.477C933.861 681.477 910.222 676.341 893.136 668.061C876.016 659.764 865.632 648.398 865.632 636.003C865.632 623.607 876.016 612.241 893.136 603.944C910.222 595.664 933.861 590.528 960 590.528C986.138 590.528 1009.78 595.664 1026.86 603.944C1043.98 612.241 1054.37 623.607 1054.37 636.003Z" stroke="#F2EBFF"/>
<path d="M1013.33 636.003C1013.33 642.857 1007.54 649.208 997.845 653.875C988.185 658.525 974.805 661.415 960 661.415C945.194 661.415 931.814 658.525 922.155 653.875C912.459 649.208 906.672 642.857 906.672 636.003C906.672 629.149 912.459 622.798 922.155 618.131C931.814 613.481 945.194 610.591 960 610.591C974.805 610.591 988.185 613.481 997.845 618.131C1007.54 622.798 1013.33 629.149 1013.33 636.003Z" stroke="#F2EBFF"/>
</g>
<defs>
<linearGradient id="paint0_linear_278_44423" x1="959.334" y1="887" x2="959.334" y2="-92.5" gradientUnits="userSpaceOnUse">
<stop stop-color="white" stop-opacity="0"/>
<stop offset="1"/>
</linearGradient>
</defs>
</svg>
