<svg width="48" height="48" viewBox="0 0 48 48" fill="none" xmlns="http://www.w3.org/2000/svg">
<path d="M31.5 19.5H40.5C40.8978 19.5 41.2794 19.342 41.5607 19.0607C41.842 18.7794 42 18.3978 42 18V9C42 8.60218 41.842 8.22064 41.5607 7.93934C41.2794 7.65804 40.8978 7.5 40.5 7.5C40.1022 7.5 39.7206 7.65804 39.4393 7.93934C39.158 8.22064 39 8.60218 39 9V13.4719C36.0994 10.2 31.0106 6 24 6C15.9713 6 11.1412 10.7381 10.9387 10.9388C10.6568 11.2197 10.498 11.6012 10.4973 11.9992C10.4966 12.3973 10.654 12.7793 10.935 13.0612C11.216 13.3432 11.5974 13.502 11.9955 13.5027C12.3935 13.5034 12.7755 13.346 13.0575 13.065C13.1081 13.0144 17.265 9 24 9C30.5625 9 35.2931 13.6219 37.605 16.5H31.5C31.1022 16.5 30.7206 16.658 30.4393 16.9393C30.158 17.2206 30 17.6022 30 18C30 18.3978 30.158 18.7794 30.4393 19.0607C30.7206 19.342 31.1022 19.5 31.5 19.5ZM7.5 28.5H16.5C16.8978 28.5 17.2794 28.658 17.5607 28.9393C17.842 29.2206 18 29.6022 18 30C18 30.3978 17.842 30.7794 17.5607 31.0607C17.2794 31.342 16.8978 31.5 16.5 31.5H10.395C12.7069 34.3781 17.4375 39 24 39C30.735 39 34.8919 34.9856 34.9425 34.935C35.2245 34.654 35.6065 34.4966 36.0045 34.4973C36.4026 34.498 36.784 34.6568 37.065 34.9387C37.346 35.2207 37.5034 35.6027 37.5027 36.0008C37.502 36.3988 37.3432 36.7803 37.0612 37.0613C36.8587 37.2619 32.0287 42 24 42C16.9894 42 11.9006 37.8 9 34.5281V39C9 39.3978 8.84197 39.7794 8.56066 40.0607C8.27936 40.342 7.89782 40.5 7.5 40.5C7.10218 40.5 6.72064 40.342 6.43934 40.0607C6.15803 39.7794 6 39.3978 6 39V30C6 29.6022 6.15803 29.2206 6.43934 28.9393C6.72064 28.658 7.10218 28.5 7.5 28.5Z" fill="#6100FF"/>
</svg>
