<svg width="20" height="20" viewBox="0 0 20 20" fill="none" xmlns="http://www.w3.org/2000/svg">
<path d="M9.95785 7.08317C9.61455 7.07868 9.33734 6.80147 9.33286 6.45817V2.2915C9.33286 1.94633 9.61268 1.6665 9.95785 1.6665C10.303 1.6665 10.5829 1.94633 10.5829 2.2915V6.45817C10.5784 6.80147 10.3012 7.07868 9.95785 7.08317Z" fill="#3F3F3F"/>
<path d="M9.95785 18.7498C9.61455 18.7453 9.33734 18.4681 9.33286 18.1248V13.9582C9.33286 13.613 9.61268 13.3332 9.95785 13.3332C10.303 13.3332 10.5829 13.613 10.5829 13.9582V18.1248C10.5784 18.4681 10.3012 18.7453 9.95785 18.7498Z" fill="#3F3F3F"/>
<path d="M7.80785 7.75817C7.60225 7.75968 7.40906 7.65997 7.29119 7.4915L4.90785 4.08317C4.81099 3.94749 4.77234 3.77873 4.80051 3.61441C4.82868 3.45009 4.92132 3.30384 5.05785 3.20817C5.33518 3.03967 5.69499 3.10803 5.89119 3.3665L8.29119 6.77484C8.43104 6.96385 8.45124 7.21595 8.34327 7.42482C8.23529 7.63369 8.01793 7.76298 7.78285 7.75817H7.80785Z" fill="#3F3F3F"/>
<path d="M14.4995 17.3165C14.2939 17.318 14.1007 17.2183 13.9829 17.0498L11.6245 13.6415C11.4266 13.3585 11.4956 12.9686 11.7787 12.7707C12.0617 12.5728 12.4516 12.6418 12.6495 12.9248L15.0329 16.3332C15.1727 16.5222 15.1929 16.7743 15.0849 16.9832C14.977 17.192 14.7596 17.3213 14.5245 17.3165H14.4995Z" fill="#3F3F3F"/>
<path d="M6.43286 9.54984C6.36109 9.56136 6.28795 9.56136 6.21619 9.54984L2.30786 8.0915C2.14538 8.03365 2.01352 7.91204 1.94275 7.75476C1.87197 7.59748 1.8684 7.41814 1.93286 7.25817C1.9883 7.0941 2.11019 6.96091 2.26871 6.89116C2.42722 6.82142 2.60777 6.82154 2.76619 6.8915L6.62452 8.3415C6.90432 8.44907 7.06836 8.74013 7.01545 9.03519C6.96254 9.33025 6.7076 9.5462 6.40786 9.54984H6.43286Z" fill="#3F3F3F"/>
<path d="M17.3995 13.5415C17.3255 13.5397 17.2523 13.5257 17.1829 13.4998L13.2912 12.0748C13.1272 12.019 12.9937 11.8976 12.9226 11.7397C12.8515 11.5817 12.8492 11.4013 12.9162 11.2415C12.974 11.079 13.0957 10.9472 13.2529 10.8764C13.4102 10.8056 13.5895 10.802 13.7495 10.8665L17.6579 12.2915C17.8203 12.3494 17.9522 12.471 18.023 12.6282C18.0937 12.7855 18.0973 12.9649 18.0329 13.1248C17.9397 13.3905 17.6804 13.5611 17.3995 13.5415Z" fill="#3F3F3F"/>
<path d="M2.30786 12.8832C1.98751 12.8913 1.71293 12.6558 1.67213 12.338C1.63133 12.0201 1.83752 11.7229 2.14952 11.6498L6.17452 10.5748C6.33476 10.5316 6.50564 10.5538 6.64946 10.6367C6.79328 10.7195 6.89824 10.8562 6.94119 11.0165C7.02648 11.3496 6.83044 11.6899 6.49952 11.7832L2.45786 12.8582C2.40918 12.8731 2.35874 12.8815 2.30786 12.8832Z" fill="#3F3F3F"/>
<path d="M13.5829 9.8665C13.2983 9.8653 13.0494 9.67441 12.9745 9.39984C12.9312 9.2396 12.9535 9.06872 13.0363 8.9249C13.1192 8.78108 13.2559 8.67612 13.4162 8.63317L17.4579 7.55817C17.7915 7.46842 18.1348 7.66616 18.2245 7.99984C18.3143 8.33351 18.1165 8.67676 17.7829 8.7665L13.7579 9.8415C13.7014 9.85967 13.6422 9.86812 13.5829 9.8665Z" fill="#3F3F3F"/>
<path d="M4.86619 16.8748C4.62465 16.8728 4.4059 16.7318 4.30434 16.5126C4.20278 16.2935 4.23659 16.0354 4.39119 15.8498L7.06619 12.7082C7.29326 12.4511 7.68236 12.4181 7.94952 12.6332C8.07704 12.7401 8.15666 12.8934 8.17074 13.0592C8.18482 13.225 8.13219 13.3896 8.02452 13.5165L5.34952 16.6748C5.22607 16.8099 5.049 16.8832 4.86619 16.8748Z" fill="#3F3F3F"/>
<path d="M12.3662 7.95817C12.2201 7.96125 12.0778 7.91087 11.9662 7.8165C11.8387 7.70959 11.7591 7.55624 11.745 7.39044C11.7309 7.22463 11.7835 7.06005 11.8912 6.93317L14.5662 3.7415C14.6731 3.61399 14.8265 3.53437 14.9923 3.52029C15.1581 3.50621 15.3226 3.55884 15.4495 3.6665C15.688 3.88224 15.7206 4.24499 15.5245 4.49984L12.8495 7.70817C12.7335 7.85907 12.5564 7.95066 12.3662 7.95817Z" fill="#3F3F3F"/>
<path d="M9.95785 7.08317C9.61455 7.07868 9.33734 6.80147 9.33286 6.45817V2.2915C9.33286 1.94633 9.61268 1.6665 9.95785 1.6665C10.303 1.6665 10.5829 1.94633 10.5829 2.2915V6.45817C10.5784 6.80147 10.3012 7.07868 9.95785 7.08317Z" fill="#6100FF"/>
<path d="M9.95785 18.7498C9.61455 18.7453 9.33734 18.4681 9.33286 18.1248V13.9582C9.33286 13.613 9.61268 13.3332 9.95785 13.3332C10.303 13.3332 10.5829 13.613 10.5829 13.9582V18.1248C10.5784 18.4681 10.3012 18.7453 9.95785 18.7498Z" fill="#C099FF"/>
<path d="M7.80785 7.75817C7.60225 7.75968 7.40906 7.65997 7.29119 7.4915L4.90785 4.08317C4.81099 3.94749 4.77234 3.77873 4.80051 3.61441C4.82868 3.45009 4.92132 3.30384 5.05785 3.20817C5.33518 3.03967 5.69499 3.10803 5.89119 3.3665L8.29119 6.77484C8.43104 6.96385 8.45124 7.21595 8.34327 7.42482C8.23529 7.63369 8.01793 7.76298 7.78285 7.75817H7.80785Z" fill="#8235FF"/>
<path d="M14.4995 17.3165C14.2939 17.318 14.1007 17.2183 13.9829 17.0498L11.6245 13.6415C11.4266 13.3585 11.4956 12.9686 11.7787 12.7707C12.0617 12.5728 12.4516 12.6418 12.6495 12.9248L15.0329 16.3332C15.1727 16.5222 15.1929 16.7743 15.0849 16.9832C14.977 17.192 14.7596 17.3213 14.5245 17.3165H14.4995Z" fill="#C8A7FF"/>
<path d="M6.43286 9.54984C6.36109 9.56136 6.28795 9.56136 6.21619 9.54984L2.30786 8.0915C2.14538 8.03365 2.01352 7.91204 1.94275 7.75476C1.87197 7.59748 1.8684 7.41814 1.93286 7.25817C1.9883 7.0941 2.11019 6.96091 2.26871 6.89116C2.42722 6.82142 2.60777 6.82154 2.76619 6.8915L6.62452 8.3415C6.90432 8.44907 7.06836 8.74013 7.01545 9.03519C6.96254 9.33025 6.7076 9.5462 6.40786 9.54984H6.43286Z" fill="#9757FF"/>
<path d="M17.3995 13.5415C17.3255 13.5397 17.2523 13.5257 17.1829 13.4998L13.2912 12.0748C13.1272 12.019 12.9937 11.8976 12.9226 11.7397C12.8515 11.5817 12.8492 11.4013 12.9162 11.2415C12.974 11.079 13.0957 10.9472 13.2529 10.8764C13.4102 10.8056 13.5895 10.802 13.7495 10.8665L17.6579 12.2915C17.8203 12.3494 17.9522 12.471 18.023 12.6282C18.0937 12.7855 18.0973 12.9649 18.0329 13.1248C17.9397 13.3905 17.6804 13.5611 17.3995 13.5415Z" fill="#D5BBFF"/>
<path d="M2.30786 12.8832C1.98751 12.8913 1.71293 12.6558 1.67213 12.338C1.63133 12.0201 1.83752 11.7229 2.14952 11.6498L6.17452 10.5748C6.33476 10.5316 6.50564 10.5538 6.64946 10.6367C6.79328 10.7195 6.89824 10.8562 6.94119 11.0165C7.02648 11.3496 6.83044 11.6899 6.49952 11.7832L2.45786 12.8582C2.40918 12.8731 2.35874 12.8815 2.30786 12.8832Z" fill="#A167FF"/>
<path d="M13.5829 9.8665C13.2983 9.8653 13.0494 9.67441 12.9745 9.39984C12.9312 9.2396 12.9535 9.06872 13.0363 8.9249C13.1192 8.78108 13.2559 8.67612 13.4162 8.63317L17.4579 7.55817C17.7915 7.46842 18.1348 7.66616 18.2245 7.99984C18.3143 8.33351 18.1165 8.67676 17.7829 8.7665L13.7579 9.8415C13.7014 9.85967 13.6422 9.86812 13.5829 9.8665Z" fill="#E2D0FF"/>
<path d="M4.86619 16.8748C4.62465 16.8728 4.4059 16.7318 4.30434 16.5126C4.20278 16.2935 4.23659 16.0354 4.39119 15.8498L7.06619 12.7082C7.29326 12.4511 7.68236 12.4181 7.94952 12.6332C8.07704 12.7401 8.15666 12.8934 8.17074 13.0592C8.18482 13.225 8.13219 13.3896 8.02452 13.5165L5.34952 16.6748C5.22607 16.8099 5.049 16.8832 4.86619 16.8748Z" fill="#B07FFF"/>
<path d="M12.3662 7.95817C12.2201 7.96125 12.0778 7.91087 11.9662 7.8165C11.8387 7.70959 11.7591 7.55624 11.745 7.39044C11.7309 7.22463 11.7835 7.06005 11.8912 6.93317L14.5662 3.7415C14.6731 3.61399 14.8265 3.53437 14.9923 3.52029C15.1581 3.50621 15.3226 3.55884 15.4495 3.6665C15.688 3.88224 15.7206 4.24499 15.5245 4.49984L12.8495 7.70817C12.7335 7.85907 12.5564 7.95066 12.3662 7.95817Z" fill="#EADDFF"/>
</svg>
