<svg width="24" height="24" viewBox="0 0 24 24" fill="none" xmlns="http://www.w3.org/2000/svg">
<path d="M21.9852 10.7234L17.7571 14.4134L19.0236 19.9072C19.0906 20.1944 19.0715 20.495 18.9686 20.7713C18.8658 21.0477 18.6837 21.2877 18.4452 21.4611C18.2067 21.6346 17.9223 21.7339 17.6277 21.7467C17.3331 21.7594 17.0412 21.685 16.7886 21.5328L11.9971 18.6266L7.2158 21.5328C6.96321 21.685 6.67135 21.7594 6.37671 21.7467C6.08208 21.7339 5.79773 21.6346 5.55923 21.4611C5.32074 21.2877 5.13866 21.0477 5.03578 20.7713C4.9329 20.495 4.91378 20.1944 4.9808 19.9072L6.24549 14.4191L2.01643 10.7234C1.79275 10.5305 1.631 10.2758 1.55148 9.99138C1.47195 9.7069 1.47819 9.40528 1.5694 9.12434C1.66061 8.8434 1.83274 8.59564 2.0642 8.41213C2.29566 8.22862 2.57615 8.11754 2.87049 8.0928L8.44486 7.60999L10.6208 2.41999C10.7344 2.14766 10.9261 1.91504 11.1717 1.75142C11.4172 1.5878 11.7057 1.50049 12.0008 1.50049C12.2959 1.50049 12.5844 1.5878 12.8299 1.75142C13.0755 1.91504 13.2672 2.14766 13.3808 2.41999L15.5633 7.60999L21.1358 8.0928C21.4301 8.11754 21.7106 8.22862 21.9421 8.41213C22.1736 8.59564 22.3457 8.8434 22.4369 9.12434C22.5281 9.40528 22.5343 9.7069 22.4548 9.99138C22.3753 10.2758 22.2135 10.5305 21.9899 10.7234H21.9852Z" fill="#6100FF"/>
</svg>
