<svg width="124" height="124" viewBox="0 0 124 124" fill="none" xmlns="http://www.w3.org/2000/svg">
<g clip-path="url(#clip0_136_7524)">
<path d="M51.6666 47.2349C53.0673 47.2349 54.1925 46.1097 54.1925 44.709V35.8223C54.1925 34.4216 53.0673 33.2964 51.6666 33.2964C50.2658 33.2964 49.1406 34.4216 49.1406 35.8223V44.709C49.1406 46.1097 50.2658 47.2349 51.6666 47.2349Z" fill="#6100FF"/>
<path d="M72.3335 47.2349C73.7343 47.2349 74.8595 46.1097 74.8595 44.709V35.8223C74.8595 34.4216 73.7343 33.2964 72.3335 33.2964C70.9328 33.2964 69.8076 34.4216 69.8076 35.8223V44.709C69.8076 46.1097 70.9328 47.2349 72.3335 47.2349Z" fill="#6100FF"/>
<path d="M62 124C96.2378 124 124 96.2378 124 62C124 27.7622 96.2378 0 62 0C27.7622 0 0 27.7622 0 62C0 96.2378 27.7622 124 62 124ZM90.1985 104.964C88.4304 106.732 85.537 106.732 83.7689 104.964L79.6356 100.83C74.6985 104.229 68.6133 106.296 61.977 106.296C55.3407 106.296 49.2556 104.252 44.3185 100.83L40.1852 104.964C38.417 106.732 35.5237 106.732 33.7556 104.964C31.9874 103.196 31.9874 100.302 33.7556 98.5341L37.7281 94.5615C34.3985 90.1526 32.4237 84.8022 32.4237 79.0156C32.4237 76.5126 34.4674 74.4689 36.9704 74.4689C39.4733 74.4689 41.517 76.5126 41.517 79.0156C41.517 89.0274 50.6793 97.1793 61.9541 97.1793C73.2289 97.1793 82.3911 89.0274 82.3911 79.0156C82.3911 76.5126 84.4348 74.4689 86.9378 74.4689C89.4407 74.4689 91.4844 76.5126 91.4844 79.0156C91.4844 84.7793 89.5096 90.1296 86.18 94.5615L90.1526 98.5341C91.9207 100.302 91.9207 103.196 90.1526 104.964H90.1985ZM33.8015 19.0363C34.697 18.1407 35.8452 17.7044 37.0163 17.7044C38.1874 17.7044 39.3356 18.1407 40.2311 19.0363L45.7193 24.5244C50.3807 21.6541 55.9837 19.9778 62 19.9778C68.0163 19.9778 73.6193 21.6541 78.2807 24.5244L83.7689 19.0363C84.6644 18.1407 85.8126 17.7044 86.9837 17.7044C88.1548 17.7044 89.303 18.1407 90.1985 19.0363C91.9667 20.8044 91.9667 23.6978 90.1985 25.4659L85.2156 30.4489C89.1652 35.0874 91.5304 40.897 91.5304 47.2348C91.5304 49.7378 89.4867 51.7815 86.9837 51.7815H37.0163C34.5133 51.7815 32.4696 49.7378 32.4696 47.2348C32.4696 40.897 34.8348 35.0874 38.7844 30.4489L33.8015 25.4659C32.0333 23.6978 32.0333 20.8044 33.8015 19.0363ZM23.3763 58.6015H100.601C103.104 58.6015 105.147 60.6452 105.147 63.1481C105.147 65.6511 103.104 67.6948 100.601 67.6948H23.3763C20.8733 67.6948 18.8296 65.6511 18.8296 63.1481C18.8296 60.6452 20.8733 58.6015 23.3763 58.6015Z" fill="#6100FF"/>
</g>
<defs>
<clipPath id="clip0_136_7524">
<rect width="124" height="124" fill="white"/>
</clipPath>
</defs>
</svg>
