<svg width="current" height="current" viewBox="0 0 107 109" fill="none" xmlns="http://www.w3.org/2000/svg">
<path fill-rule="evenodd" clip-rule="evenodd" d="M53.5 11.1429C39.2278 11.1429 28.5769 21.6092 28.5769 33.4286C28.5769 36.5056 26.0973 39 23.0385 39C19.9797 39 17.5 36.5056 17.5 33.4286C17.5 14.4796 34.1273 0 53.5 0C72.8727 0 89.5 14.4796 89.5 33.4286C89.5 36.5056 87.0203 39 83.9615 39C80.9027 39 78.4231 36.5056 78.4231 33.4286C78.4231 21.6092 67.7722 11.1429 53.5 11.1429Z" fill="#6100FF"/>
<path fill-rule="evenodd" clip-rule="evenodd" d="M23.0385 67C26.0973 67 28.5769 69.4944 28.5769 72.5714C28.5769 84.3908 39.2278 94.8571 53.5 94.8571C67.7722 94.8571 78.4231 84.3908 78.4231 72.5714C78.4231 69.4944 80.9027 67 83.9615 67C87.0203 67 89.5 69.4944 89.5 72.5714C89.5 91.5204 72.8727 106 53.5 106C34.1273 106 17.5 91.5204 17.5 72.5714C17.5 69.4944 19.9797 67 23.0385 67Z" fill="#6100FF"/>
<path fill-rule="evenodd" clip-rule="evenodd" d="M0.5 53.5C0.5 50.4624 2.99778 48 6.07895 48H100.921C104.002 48 106.5 50.4624 106.5 53.5C106.5 56.5376 104.002 59 100.921 59H6.07895C2.99778 59 0.5 56.5376 0.5 53.5Z" fill="#6100FF"/>
<path fill-rule="evenodd" clip-rule="evenodd" d="M54 73C57.0376 73 59.5 75.4421 59.5 78.4545V97.5455C59.5 100.558 57.0376 103 54 103C50.9624 103 48.5 100.558 48.5 97.5455V78.4545C48.5 75.4421 50.9624 73 54 73Z" fill="#6100FF"/>
<path fill-rule="evenodd" clip-rule="evenodd" d="M19.09 1.67368C21.21 -0.557892 24.6472 -0.557892 26.7672 1.67368L34.91 10.2451C37.03 12.4767 37.03 16.0948 34.91 18.3263C32.79 20.5579 29.3528 20.5579 27.2328 18.3263L19.09 9.7549C16.97 7.52333 16.97 3.90524 19.09 1.67368Z" fill="#6100FF"/>
<path fill-rule="evenodd" clip-rule="evenodd" d="M87.91 1.67368C90.03 3.90524 90.03 7.52333 87.91 9.7549L79.7672 18.3263C77.6472 20.5579 74.21 20.5579 72.09 18.3263C69.97 16.0948 69.97 12.4767 72.09 10.2451L80.2328 1.67368C82.3528 -0.557892 85.79 -0.557892 87.91 1.67368Z" fill="#6100FF"/>
<path fill-rule="evenodd" clip-rule="evenodd" d="M34.91 90.6737C37.03 92.9052 37.03 96.5233 34.91 98.7549L26.7672 107.326C24.6472 109.558 21.21 109.558 19.09 107.326C16.97 105.095 16.97 101.477 19.09 99.2451L27.2328 90.6737C29.3528 88.4421 32.79 88.4421 34.91 90.6737Z" fill="#6100FF"/>
<path fill-rule="evenodd" clip-rule="evenodd" d="M72.09 90.6737C74.21 88.4421 77.6472 88.4421 79.7672 90.6737L87.91 99.2451C90.03 101.477 90.03 105.095 87.91 107.326C85.79 109.558 82.3528 109.558 80.2328 107.326L72.09 98.7549C69.97 96.5233 69.97 92.9052 72.09 90.6737Z" fill="#6100FF"/>
</svg>
