<svg width="37" height="37" viewBox="0 0 37 37" fill="none" xmlns="http://www.w3.org/2000/svg">
<path d="M24.194 28.5557C24.511 28.8727 24.6891 29.3026 24.6891 29.751C24.6891 30.1993 24.511 30.6293 24.194 30.9463C23.8769 31.2633 23.447 31.4414 22.9987 31.4414C22.5503 31.4414 22.1204 31.2633 21.8033 30.9463L10.5533 19.6963C10.396 19.5395 10.2712 19.3532 10.186 19.1481C10.1008 18.943 10.057 18.7231 10.057 18.501C10.057 18.2789 10.1008 18.059 10.186 17.8538C10.2712 17.6487 10.396 17.4624 10.5533 17.3057L21.8033 6.05566C22.1204 5.73864 22.5503 5.56055 22.9987 5.56055C23.447 5.56055 23.8769 5.73865 24.194 6.05566C24.511 6.37268 24.6891 6.80264 24.6891 7.25097C24.6891 7.6993 24.511 8.12927 24.194 8.44629L14.1407 18.4996L24.194 28.5557Z" fill="#6100FF"/>
</svg>
