<svg width="25" height="24" viewBox="0 0 25 24" fill="none" xmlns="http://www.w3.org/2000/svg">
<path d="M20.5302 9.53063L13.0302 17.0306C12.9606 17.1004 12.8779 17.1557 12.7868 17.1934C12.6958 17.2312 12.5982 17.2506 12.4996 17.2506C12.4011 17.2506 12.3035 17.2312 12.2124 17.1934C12.1214 17.1557 12.0386 17.1004 11.969 17.0306L4.46899 9.53063C4.36398 9.42573 4.29245 9.29204 4.26347 9.14648C4.23448 9.00092 4.24933 8.85002 4.30615 8.71291C4.36296 8.57579 4.45918 8.45861 4.58263 8.37621C4.70607 8.29381 4.85119 8.24988 4.99961 8.25H19.9996C20.148 8.24988 20.2932 8.29381 20.4166 8.37621C20.54 8.45861 20.6363 8.57579 20.6931 8.71291C20.7499 8.85002 20.7648 9.00092 20.7358 9.14648C20.7068 9.29204 20.6352 9.42573 20.5302 9.53063Z" fill="#343330"/>
</svg>
