<svg width="36" height="37" viewBox="0 0 36 37" fill="none" xmlns="http://www.w3.org/2000/svg">
<path d="M23.6955 28.5454C24.0126 28.8624 24.1907 29.2924 24.1907 29.7407C24.1907 30.189 24.0126 30.619 23.6955 30.936C23.3785 31.253 22.9486 31.4311 22.5002 31.4311C22.0519 31.4311 21.6219 31.253 21.3049 30.936L10.0549 19.686C9.8976 19.5293 9.77278 19.343 9.68761 19.1379C9.60244 18.9327 9.55859 18.7128 9.55859 18.4907C9.55859 18.2686 9.60244 18.0487 9.68761 17.8436C9.77278 17.6385 9.8976 17.4522 10.0549 17.2954L21.3049 6.04541C21.6219 5.72839 22.0519 5.55029 22.5002 5.55029C22.9486 5.55029 23.3785 5.72839 23.6955 6.04541C24.0126 6.36242 24.1907 6.79239 24.1907 7.24072C24.1907 7.68905 24.0126 8.11902 23.6955 8.43603L13.6423 18.4893L23.6955 28.5454Z" fill="#6100FF"/>
</svg>
