<svg width="25" height="25" viewBox="0 0 25 25" fill="none" xmlns="http://www.w3.org/2000/svg">
<path d="M22.2969 8.04597L10.2969 20.046C10.1924 20.1509 10.0682 20.2341 9.93142 20.2909C9.79467 20.3476 9.64806 20.3769 9.5 20.3769C9.35193 20.3769 9.20532 20.3476 9.06858 20.2909C8.93183 20.2341 8.80764 20.1509 8.70312 20.046L3.45312 14.796C3.34848 14.6913 3.26547 14.5671 3.20883 14.4304C3.1522 14.2936 3.12305 14.1471 3.12305 13.9991C3.12305 13.8511 3.1522 13.7046 3.20883 13.5678C3.26547 13.4311 3.34848 13.3069 3.45312 13.2022C3.55777 13.0976 3.682 13.0146 3.81873 12.9579C3.95546 12.9013 4.10201 12.8721 4.25 12.8721C4.39799 12.8721 4.54454 12.9013 4.68126 12.9579C4.81799 13.0146 4.94223 13.0976 5.04687 13.2022L9.50094 17.6563L20.705 6.4541C20.9163 6.24276 21.203 6.12402 21.5019 6.12402C21.8008 6.12402 22.0874 6.24276 22.2987 6.4541C22.5101 6.66544 22.6288 6.95209 22.6288 7.25098C22.6288 7.54986 22.5101 7.83651 22.2987 8.04785L22.2969 8.04597Z" fill="#343330"/>
</svg>
