<svg width="25" height="25" viewBox="0 0 25 25" fill="none" xmlns="http://www.w3.org/2000/svg">
<path d="M20.71 3.5H8.70996C8.51105 3.5 8.32028 3.57902 8.17963 3.71967C8.03898 3.86032 7.95996 4.05109 7.95996 4.25V8H4.20996C4.01105 8 3.82028 8.07902 3.67963 8.21967C3.53898 8.36032 3.45996 8.55109 3.45996 8.75V20.75C3.45996 20.9489 3.53898 21.1397 3.67963 21.2803C3.82028 21.421 4.01105 21.5 4.20996 21.5H16.21C16.4089 21.5 16.5996 21.421 16.7403 21.2803C16.8809 21.1397 16.96 20.9489 16.96 20.75V17H20.71C20.9089 17 21.0996 16.921 21.2403 16.7803C21.3809 16.6397 21.46 16.4489 21.46 16.25V4.25C21.46 4.05109 21.3809 3.86032 21.2403 3.71967C21.0996 3.57902 20.9089 3.5 20.71 3.5ZM15.46 20H4.95996V9.5H15.46V20ZM19.96 15.5H16.96V8.75C16.96 8.55109 16.8809 8.36032 16.7403 8.21967C16.5996 8.07902 16.4089 8 16.21 8H9.45996V5H19.96V15.5Z" fill="#D6D6D6"/>
</svg>
