<svg width="19" height="19" viewBox="0 0 19 19" fill="none" xmlns="http://www.w3.org/2000/svg">
    <path fill-rule="evenodd" clip-rule="evenodd" d="M4.95938 5.82783C4.95938 3.82114 6.78132 2.04417 9.22274 2.04417C11.6642 2.04417 13.4861 3.82114 13.4861 5.82783C13.4861 6.35024 13.9103 6.77374 14.4335 6.77374C14.9568 6.77374 15.3809 6.35024 15.3809 5.82783C15.3809 4.60746 14.9717 3.49628 14.2827 2.58706L15.104 1.76712C15.474 1.39772 15.474 0.798798 15.104 0.429395C14.734 0.0599931 14.1341 0.0599932 13.7641 0.429395L12.9095 1.28262C11.8704 0.56857 10.5863 0.152344 9.22274 0.152344C7.85928 0.152344 6.57532 0.568486 5.53625 1.2824L4.68189 0.429395C4.3119 0.0599932 3.71203 0.0599932 3.34204 0.429395C2.97206 0.798798 2.97206 1.39772 3.34204 1.76712L4.16298 2.58675C3.47391 3.49603 3.06455 4.60732 3.06455 5.82783C3.06455 6.35024 3.48872 6.77374 4.01197 6.77374C4.53521 6.77374 4.95938 6.35024 4.95938 5.82783ZM3.06455 12.4492C3.06455 13.7896 3.55829 14.9983 4.37401 15.9523L3.34204 16.9827C2.97206 17.3521 2.97206 17.951 3.34204 18.3204C3.71203 18.6898 4.3119 18.6898 4.68189 18.3204L5.82348 17.1806C6.80775 17.7803 7.98235 18.1247 9.22274 18.1247C10.4633 18.1247 11.638 17.7802 12.6223 17.1804L13.7641 18.3204C14.1341 18.6898 14.734 18.6898 15.104 18.3204C15.474 17.951 15.474 17.3521 15.104 16.9827L14.0717 15.952C14.8873 14.998 15.3809 13.7895 15.3809 12.4492C15.3809 11.9268 14.9568 11.5033 14.4335 11.5033C13.9103 11.5033 13.4861 11.9268 13.4861 12.4492C13.4861 14.1862 12.121 15.751 10.1707 16.1403V13.3949C10.1707 12.8725 9.74651 12.449 9.22327 12.449C8.70002 12.449 8.27585 12.8725 8.27585 13.3949V16.1405C6.32496 15.7516 4.95938 14.1865 4.95938 12.4492C4.95938 11.9268 4.53521 11.5033 4.01197 11.5033C3.48872 11.5033 3.06455 11.9268 3.06455 12.4492ZM0.222656 9.13829C0.222656 8.61588 0.646828 8.19238 1.17007 8.19238H17.2761C17.7993 8.19238 18.2235 8.61588 18.2235 9.13829C18.2235 9.6607 17.7993 10.0842 17.2761 10.0842H1.17007C0.646828 10.0842 0.222656 9.6607 0.222656 9.13829Z" fill="white"/>
    </svg>
    