<svg width="28" height="28" viewBox="0 0 26 24" fill="none" xmlns="http://www.w3.org/2000/svg">
<path d="M24.65 10.9412L19.7172 15.2462L21.1949 21.6556C21.2731 21.9907 21.2507 22.3414 21.1307 22.6638C21.0107 22.9863 20.7983 23.2662 20.52 23.4686C20.2418 23.6709 19.91 23.7868 19.5663 23.8017C19.2226 23.8166 18.8821 23.7298 18.5874 23.5522L12.9972 20.1616L7.41909 23.5522C7.1244 23.7298 6.7839 23.8166 6.44015 23.8017C6.09641 23.7868 5.76467 23.6709 5.48642 23.4686C5.20818 23.2662 4.99576 22.9863 4.87573 22.6638C4.75571 22.3414 4.73339 21.9907 4.81159 21.6556L6.28706 15.2528L1.35315 10.9412C1.09219 10.7162 0.903489 10.4191 0.81071 10.0872C0.717932 9.7553 0.725205 9.40341 0.831619 9.07565C0.938032 8.74788 1.13885 8.45883 1.40888 8.24473C1.67892 8.03064 2.00616 7.90104 2.34956 7.87218L8.85299 7.3089L11.3916 1.2539C11.5242 0.936186 11.7478 0.664795 12.0343 0.473903C12.3208 0.283011 12.6573 0.181152 13.0016 0.181152C13.3459 0.181152 13.6824 0.283011 13.9689 0.473903C14.2554 0.664795 14.479 0.936186 14.6116 1.2539L17.1578 7.3089L23.6591 7.87218C24.0025 7.90104 24.3297 8.03064 24.5998 8.24473C24.8698 8.45883 25.0706 8.74788 25.177 9.07565C25.2834 9.40341 25.2907 9.7553 25.1979 10.0872C25.1052 10.4191 24.9165 10.7162 24.6555 10.9412H24.65Z" fill="none"/>
</svg>
    