<svg width="24" height="11" viewBox="0 0 24 11" fill="none" xmlns="http://www.w3.org/2000/svg">
<path d="M14.026 2.03521L5.62605 10.2852C5.48577 10.4232 5.29688 10.5005 5.10011 10.5005C4.90334 10.5005 4.71445 10.4232 4.57417 10.2852L0.974175 6.7499C0.903938 6.68083 0.847993 6.59861 0.809533 6.50792C0.771074 6.41723 0.750853 6.31986 0.750026 6.22135C0.749199 6.12285 0.767782 6.02515 0.804713 5.93383C0.841644 5.84251 0.896201 5.75935 0.965268 5.68912C1.03434 5.61888 1.11656 5.56294 1.20725 5.52448C1.29794 5.48602 1.39531 5.4658 1.49381 5.46497C1.59232 5.46414 1.69002 5.48273 1.78134 5.51966C1.87266 5.55659 1.95581 5.61114 2.02605 5.68021L5.10011 8.69896L12.9751 0.964587C13.1171 0.825099 13.3087 0.747724 13.5077 0.749482C13.6062 0.750353 13.7036 0.770625 13.7943 0.809141C13.8851 0.847657 13.9673 0.903663 14.0364 0.973962C14.1054 1.04426 14.16 1.12747 14.1969 1.21885C14.2338 1.31023 14.2523 1.40798 14.2515 1.50653C14.2506 1.60507 14.2303 1.70248 14.1918 1.7932C14.1533 1.88391 14.0973 1.96614 14.027 2.03521H14.026ZM23.0354 0.973962C22.9664 0.90361 22.8842 0.847558 22.7934 0.809008C22.7027 0.770458 22.6053 0.750168 22.5067 0.749297C22.4082 0.748426 22.3104 0.766992 22.219 0.803933C22.1276 0.840874 22.0444 0.895466 21.9742 0.964587L14.0992 8.69896L12.3339 6.96459C12.1919 6.82522 12.0004 6.74797 11.8014 6.74981C11.6025 6.75166 11.4124 6.83246 11.2731 6.97443C11.1337 7.1164 11.0565 7.30792 11.0583 7.50686C11.0602 7.7058 11.141 7.89585 11.2829 8.03521L13.5732 10.2852C13.7135 10.4232 13.9024 10.5005 14.0992 10.5005C14.2959 10.5005 14.4848 10.4232 14.6251 10.2852L23.0251 2.03521C23.0955 1.96624 23.1516 1.88406 23.1903 1.79338C23.2289 1.70269 23.2493 1.60529 23.2502 1.50672C23.2512 1.40816 23.2327 1.31038 23.1959 1.21896C23.159 1.12754 23.1045 1.04429 23.0354 0.973962Z" fill="black"/>
</svg>
