<svg width="22" height="21" viewBox="0 0 22 21" fill="none" xmlns="http://www.w3.org/2000/svg">
<path d="M21.4258 8.12124C21.335 7.84129 21.1638 7.59424 20.9336 7.41087C20.7034 7.2275 20.4243 7.11591 20.1311 7.08999L14.5633 6.60999L12.3808 1.41999C12.2672 1.14766 12.0755 0.91504 11.8299 0.751418C11.5844 0.587796 11.2959 0.500488 11.0008 0.500488C10.7057 0.500488 10.4172 0.587796 10.1717 0.751418C9.9261 0.91504 9.73443 1.14766 9.6208 1.41999L7.44486 6.60999L1.87049 7.0928C1.57615 7.11754 1.29566 7.22862 1.0642 7.41213C0.832741 7.59564 0.660612 7.8434 0.569401 8.12434C0.478189 8.40528 0.471955 8.7069 0.55148 8.99138C0.631004 9.27585 0.792748 9.53051 1.01643 9.72343L5.24549 13.4191L3.97799 18.9072C3.91097 19.1944 3.93009 19.495 4.03297 19.7713C4.13585 20.0477 4.31792 20.2877 4.55642 20.4611C4.79492 20.6346 5.07926 20.7339 5.3739 20.7467C5.66854 20.7594 5.9604 20.685 6.21299 20.5328L10.9942 17.6266L15.7858 20.5328C16.0384 20.685 16.3303 20.7594 16.6249 20.7467C16.9195 20.7339 17.2039 20.6346 17.4424 20.4611C17.6809 20.2877 17.8629 20.0477 17.9658 19.7713C18.0687 19.495 18.0878 19.1944 18.0208 18.9072L16.7542 13.4134L20.9824 9.72343C21.206 9.52984 21.3674 9.27446 21.4463 8.98938C21.5252 8.70431 21.5181 8.40227 21.4258 8.12124ZM19.9989 8.58999L15.7708 12.28C15.565 12.459 15.4119 12.6907 15.328 12.9502C15.2441 13.2097 15.2325 13.4872 15.2946 13.7528L16.5649 19.2503L11.7771 16.3441C11.5435 16.2018 11.2752 16.1266 11.0017 16.1266C10.7282 16.1266 10.46 16.2018 10.2264 16.3441L5.44518 19.2503L6.70705 13.7566C6.76907 13.491 6.7575 13.2135 6.67358 12.954C6.58966 12.6945 6.43658 12.4627 6.2308 12.2837L2.0008 8.59561C2.00046 8.59281 2.00046 8.58998 2.0008 8.58718L7.5733 8.1053C7.84537 8.08132 8.10572 7.98351 8.32628 7.82243C8.54684 7.66135 8.71923 7.4431 8.82486 7.19124L11.0008 2.0078L13.1758 7.19124C13.2814 7.4431 13.4538 7.66135 13.6744 7.82243C13.8949 7.98351 14.1553 8.08132 14.4274 8.1053L20.0008 8.58718C20.0008 8.58718 20.0008 8.5928 20.0008 8.59374L19.9989 8.58999Z" fill="#F2EBFF"/>
</svg>
