<svg width="20" height="20" viewBox="0 0 20 20" fill="none" xmlns="http://www.w3.org/2000/svg">
<path fill-rule="evenodd" clip-rule="evenodd" d="M17.3799 12.9196L12.6799 4.21959C12.0928 3.15854 10.9759 2.5 9.76322 2.5C8.55059 2.5 7.43362 3.15854 6.84656 4.21959L2.07155 12.9113C1.51055 13.9435 1.53441 15.1949 2.13434 16.2051C2.73428 17.2152 3.82169 17.8349 4.99656 17.8363H14.4466C15.6204 17.8363 16.7078 17.2189 17.3092 16.2108C17.9106 15.2027 17.9375 13.9526 17.3799 12.9196ZM9.04656 8.11959C9.04656 7.77441 9.32638 7.49459 9.67156 7.49459C10.0167 7.49459 10.2966 7.77441 10.2966 8.11959V10.6946C10.2966 11.0398 10.0167 11.3196 9.67156 11.3196C9.32638 11.3196 9.04656 11.0398 9.04656 10.6946V8.11959ZM9.67989 13.7446C10.0251 13.7446 10.3049 13.4648 10.3049 13.1196L10.2966 13.1113C10.2966 12.7707 10.0205 12.4946 9.67989 12.4946C9.33659 12.4991 9.05938 12.7763 9.05489 13.1196C9.05489 13.4648 9.33471 13.7446 9.67989 13.7446Z" fill="#FF6D6D"/>
</svg>
