<svg width="32" height="32" viewBox="0 0 32 32" fill="none" xmlns="http://www.w3.org/2000/svg">
<path d="M29.4166 12.9999L22.7328 19.7062C23.3028 21.2899 23.5391 23.9424 21.0841 27.2062C20.9124 27.4357 20.6932 27.6254 20.4414 27.7624C20.1896 27.8994 19.9113 27.9804 19.6253 27.9999C19.5778 27.9999 19.5316 27.9999 19.4841 27.9999C19.2213 28 18.961 27.9482 18.7182 27.8476C18.4754 27.747 18.2549 27.5996 18.0691 27.4137L12.0366 21.3749L6.70783 26.7074C6.52019 26.8951 6.2657 27.0005 6.00034 27.0005C5.73497 27.0005 5.48048 26.8951 5.29284 26.7074C5.10519 26.5198 4.99978 26.2653 4.99978 25.9999C4.99978 25.7345 5.10519 25.4801 5.29284 25.2924L10.6253 19.9637L4.58784 13.9262C4.38938 13.7275 4.235 13.4892 4.13474 13.2269C4.03448 12.9646 3.99058 12.6841 4.00591 12.4037C4.02124 12.1232 4.09545 11.8492 4.22371 11.5994C4.35197 11.3496 4.53141 11.1295 4.75034 10.9537C7.92783 8.38991 10.9691 8.89366 12.3003 9.31116L19.0003 2.58741C19.1861 2.40165 19.4066 2.25429 19.6492 2.15375C19.8919 2.05321 20.152 2.00146 20.4147 2.00146C20.6774 2.00146 20.9375 2.05321 21.1802 2.15375C21.4229 2.25429 21.6434 2.40165 21.8291 2.58741L29.4153 10.1724C29.7903 10.5473 30.001 11.0557 30.0013 11.5859C30.0015 12.1161 29.7912 12.6247 29.4166 12.9999Z" fill="#6100FF"/>
</svg>
