<svg width="33" height="33" viewBox="0 0 33 33" fill="none" xmlns="http://www.w3.org/2000/svg">
<path d="M26.7353 12.675L20.6687 6.6083C19.5585 5.51728 17.7788 5.51728 16.6687 6.6083L12.8953 10.3283C12.6807 10.5439 12.4332 10.7239 12.162 10.8616L8.06865 12.915C7.24617 13.3239 6.67083 14.1037 6.52283 15.0102C6.37483 15.9167 6.67227 16.839 7.32198 17.4883L10.882 21.0483L6.56198 25.3683C6.17205 25.7587 6.17205 26.3912 6.56198 26.7816C6.75245 26.9645 7.00466 27.0692 7.26865 27.075C7.53378 27.0747 7.78796 26.9692 7.97532 26.7816L12.2953 22.4616L15.8553 26.0216C16.5046 26.6714 17.4269 26.9688 18.3334 26.8208C19.2399 26.6728 20.0198 26.0974 20.4287 25.275L22.482 21.155C22.6197 20.8838 22.7998 20.6362 23.0153 20.4216L26.7353 16.7016C27.8439 15.5883 27.8439 13.7883 26.7353 12.675Z" fill="#6100FF"/>
</svg>
