<svg width="22" height="25" viewBox="0 0 22 25" fill="none" xmlns="http://www.w3.org/2000/svg">
<path d="M21.0612 11.5613C20.9218 11.7011 20.7563 11.8121 20.5739 11.8878C20.3916 11.9635 20.1961 12.0025 19.9987 12.0025C19.8013 12.0025 19.6058 11.9635 19.4235 11.8878C19.2411 11.8121 19.0756 11.7011 18.9362 11.5613L12.4999 5.12505V23.5C12.4999 23.8979 12.3419 24.2794 12.0606 24.5607C11.7793 24.842 11.3978 25 10.9999 25C10.6021 25 10.2206 24.842 9.93929 24.5607C9.65798 24.2794 9.49995 23.8979 9.49995 23.5V5.12505L3.0612 11.5613C2.7794 11.8431 2.39721 12.0014 1.9987 12.0014C1.60018 12.0014 1.21799 11.8431 0.936196 11.5613C0.654403 11.2795 0.496094 10.8973 0.496094 10.4988C0.496094 10.1003 0.654403 9.71809 0.936196 9.4363L9.9362 0.4363C10.0756 0.29646 10.2411 0.185505 10.4235 0.109797C10.6058 0.0340887 10.8013 -0.00488281 10.9987 -0.00488281C11.1961 -0.00488281 11.3916 0.0340887 11.5739 0.109797C11.7563 0.185505 11.9218 0.29646 12.0612 0.4363L21.0612 9.4363C21.201 9.57566 21.312 9.74125 21.3877 9.92357C21.4634 10.1059 21.5024 10.3014 21.5024 10.4988C21.5024 10.6962 21.4634 10.8917 21.3877 11.074C21.312 11.2564 21.201 11.4219 21.0612 11.5613Z" fill="white"/>
</svg>
