<svg width="29" height="29" viewBox="0 0 29 29" fill="none" xmlns="http://www.w3.org/2000/svg">
<path d="M14.75 23.1807C14.75 23.4127 14.6578 23.6353 14.4937 23.7994C14.3296 23.9635 14.1071 24.0557 13.875 24.0557H5.125C4.66087 24.0557 4.21575 23.8713 3.88756 23.5431C3.55937 23.2149 3.375 22.7698 3.375 22.3057V7.43066C3.375 6.96654 3.55937 6.52142 3.88756 6.19323C4.21575 5.86504 4.66087 5.68066 5.125 5.68066H10.958C11.3365 5.6816 11.7046 5.80432 12.008 6.03066L15.042 8.30566H24.375C24.8391 8.30566 25.2842 8.49004 25.6124 8.81823C25.9406 9.14642 26.125 9.59154 26.125 10.0557V13.5557C26.125 13.7877 26.0328 14.0103 25.8687 14.1744C25.7046 14.3385 25.4821 14.4307 25.25 14.4307C25.0179 14.4307 24.7954 14.3385 24.6313 14.1744C24.4672 14.0103 24.375 13.7877 24.375 13.5557V10.0557H15.042C14.6635 10.0547 14.2954 9.93201 13.992 9.70566L10.958 7.43066H5.125V22.3057H13.875C14.1071 22.3057 14.3296 22.3979 14.4937 22.5619C14.6578 22.726 14.75 22.9486 14.75 23.1807ZM26.6817 18.7816L24.2197 20.8149L24.9689 23.8457C25.01 24.0128 25.001 24.1883 24.9429 24.3503C24.8847 24.5123 24.7802 24.6535 24.6422 24.7564C24.5042 24.8592 24.3389 24.9191 24.1671 24.9285C23.9953 24.9379 23.8245 24.8964 23.6761 24.8093L20.875 23.161L18.0739 24.8093C17.9255 24.8964 17.7547 24.9379 17.5829 24.9285C17.4111 24.9191 17.2458 24.8592 17.1078 24.7564C16.9698 24.6535 16.8653 24.5123 16.8071 24.3503C16.749 24.1883 16.74 24.0128 16.7811 23.8457L17.5303 20.8149L15.0683 18.7816C14.934 18.6706 14.836 18.522 14.7867 18.3549C14.7374 18.1877 14.7391 18.0097 14.7916 17.8436C14.8442 17.6775 14.9451 17.5308 15.0815 17.4224C15.2178 17.314 15.3835 17.2487 15.5572 17.235L18.8209 16.9824L20.0711 14.0839C20.1386 13.9268 20.2508 13.7928 20.3937 13.6987C20.5366 13.6046 20.7039 13.5544 20.875 13.5544C21.0461 13.5544 21.2134 13.6046 21.3563 13.6987C21.4992 13.7928 21.6114 13.9268 21.6789 14.0839L22.9291 16.9824L26.1928 17.235C26.3665 17.2487 26.5322 17.314 26.6685 17.4224C26.8049 17.5308 26.9058 17.6775 26.9584 17.8436C27.0109 18.0097 27.0126 18.1877 26.9633 18.3549C26.914 18.522 26.816 18.6706 26.6817 18.7816ZM23.8959 18.8122L22.2673 18.6864C22.1085 18.6743 21.956 18.6189 21.8262 18.5264C21.6965 18.4339 21.5945 18.3077 21.5312 18.1614L20.875 16.6389L20.2188 18.1614C20.1555 18.3077 20.0535 18.4339 19.9238 18.5264C19.794 18.6189 19.6415 18.6743 19.4827 18.6864L17.8541 18.8122L19.0692 19.8163C19.1965 19.9212 19.2916 20.0599 19.3434 20.2164C19.3953 20.373 19.4018 20.541 19.3623 20.7011L18.9795 22.2455L20.4309 21.3913C20.5655 21.312 20.7188 21.2702 20.875 21.2702C21.0312 21.2702 21.1845 21.312 21.3191 21.3913L22.7705 22.2455L22.3877 20.7011C22.3482 20.541 22.3547 20.373 22.4066 20.2164C22.4584 20.0599 22.5535 19.9212 22.6808 19.8163L23.8959 18.8122Z" fill="#343330"/>
</svg>
