<svg width="22" height="21" viewBox="0 0 22 21" fill="none" xmlns="http://www.w3.org/2000/svg">
<path d="M20.9852 9.72343L16.7571 13.4134L18.0236 18.9072C18.0906 19.1944 18.0715 19.495 17.9686 19.7713C17.8658 20.0477 17.6837 20.2877 17.4452 20.4611C17.2067 20.6346 16.9223 20.7339 16.6277 20.7467C16.3331 20.7594 16.0412 20.685 15.7886 20.5328L10.9971 17.6266L6.2158 20.5328C5.96321 20.685 5.67135 20.7594 5.37671 20.7467C5.08208 20.7339 4.79773 20.6346 4.55923 20.4611C4.32074 20.2877 4.13866 20.0477 4.03578 19.7713C3.9329 19.495 3.91378 19.1944 3.9808 18.9072L5.24549 13.4191L1.01643 9.72343C0.792748 9.53051 0.631004 9.27585 0.55148 8.99138C0.471955 8.7069 0.478189 8.40528 0.569401 8.12434C0.660612 7.8434 0.832741 7.59564 1.0642 7.41213C1.29566 7.22862 1.57615 7.11754 1.87049 7.0928L7.44486 6.60999L9.6208 1.41999C9.73443 1.14766 9.9261 0.91504 10.1717 0.751418C10.4172 0.587796 10.7057 0.500488 11.0008 0.500488C11.2959 0.500488 11.5844 0.587796 11.8299 0.751418C12.0755 0.91504 12.2672 1.14766 12.3808 1.41999L14.5633 6.60999L20.1358 7.0928C20.4301 7.11754 20.7106 7.22862 20.9421 7.41213C21.1736 7.59564 21.3457 7.8434 21.4369 8.12434C21.5281 8.40528 21.5343 8.7069 21.4548 8.99138C21.3753 9.27585 21.2135 9.53051 20.9899 9.72343H20.9852Z" fill="#6100FF"/>
</svg>
