<svg width="382" height="42" viewBox="0 0 382 42" fill="none" xmlns="http://www.w3.org/2000/svg">
<path d="M52.032 4.98138H72.4422V8.98529H56.0359V16.9931H70.0398V20.997H56.0359V32.9892H52.032V4.98138ZM81.6516 4.98138V28.9853H96.0461V32.9892H77.6477V4.98138H81.6516ZM112.853 4.98138L123.654 32.9892H119.65L117.17 26.5439H104.533L102.052 32.9892H98.0484L108.849 4.98138H112.853ZM106.056 22.54H115.627L110.861 10.1962L106.056 22.54ZM132.062 32.9892L124.055 4.98138H128.059L134.27 27.2665L140.461 4.98138H144.465L150.656 27.2665L156.867 4.98138H160.871L152.863 32.9892H148.469L142.473 11.9931L136.457 32.9892H132.062ZM179.514 28.9853C181.376 28.9853 182.808 28.484 183.811 27.4814C184.814 26.4788 185.315 25.0465 185.315 23.1845V14.7861C185.315 13.8746 185.185 13.0608 184.924 12.3447C184.664 11.6285 184.28 11.0231 183.772 10.5283C183.277 10.0204 182.672 9.63633 181.955 9.37592C181.239 9.1155 180.426 8.98529 179.514 8.98529H169.28V28.9853H179.514ZM165.276 32.9892V4.98138H179.514C181.011 4.98138 182.359 5.21576 183.557 5.68451C184.768 6.14024 185.797 6.79779 186.643 7.65717C187.502 8.50352 188.16 9.53217 188.616 10.7431C189.084 11.954 189.319 13.3017 189.319 14.7861V23.1845C189.319 24.6689 189.084 26.0165 188.616 27.2275C188.16 28.4384 187.502 29.4736 186.643 30.3329C185.797 31.1793 184.768 31.8369 183.557 32.3056C182.359 32.7613 181.011 32.9892 179.514 32.9892H165.276ZM195.345 4.98138H215.755V8.98529H199.348V16.9931H213.352V20.997H199.348V28.9853H215.755V32.9892H195.345V4.98138ZM218.948 4.98138H241.351V8.98529H232.152V32.9892H228.148V8.98529H218.948V4.98138ZM245.755 4.98138H266.166V8.98529H249.759V16.9931H263.763V20.997H249.759V28.9853H266.166V32.9892H245.755V4.98138ZM271.762 8.98529C271.762 8.43842 271.866 7.92409 272.074 7.44232C272.283 6.94753 272.569 6.52435 272.934 6.17279C273.298 5.80821 273.721 5.52175 274.203 5.31342C274.698 5.09206 275.219 4.98138 275.766 4.98138H290.961C291.508 4.98138 292.022 5.09206 292.504 5.31342C292.999 5.52175 293.428 5.80821 293.793 6.17279C294.158 6.52435 294.444 6.94753 294.652 7.44232C294.861 7.92409 294.965 8.43842 294.965 8.98529V12.5986H290.961V8.98529H275.766V28.9853H290.961V25.3915H294.965V28.9853C294.965 29.5322 294.861 30.053 294.652 30.5478C294.444 31.0296 294.158 31.4527 293.793 31.8173C293.428 32.1819 292.999 32.4684 292.504 32.6767C292.022 32.885 291.508 32.9892 290.961 32.9892H275.766C275.219 32.9892 274.698 32.885 274.203 32.6767C273.721 32.4684 273.298 32.1819 272.934 31.8173C272.569 31.4527 272.283 31.0296 272.074 30.5478C271.866 30.053 271.762 29.5322 271.762 28.9853V8.98529ZM298.569 4.98138H320.971V8.98529H311.772V32.9892H307.768V8.98529H298.569V4.98138ZM349.38 28.9853C349.38 29.5322 349.276 30.053 349.067 30.5478C348.859 31.0296 348.572 31.4527 348.208 31.8173C347.843 32.1819 347.414 32.4684 346.919 32.6767C346.437 32.885 345.923 32.9892 345.376 32.9892H329.38C328.833 32.9892 328.312 32.885 327.817 32.6767C327.335 32.4684 326.912 32.1819 326.548 31.8173C326.183 31.4527 325.897 31.0296 325.688 30.5478C325.48 30.053 325.376 29.5322 325.376 28.9853V8.98529C325.376 8.43842 325.48 7.92409 325.688 7.44232C325.897 6.94753 326.183 6.52435 326.548 6.17279C326.912 5.80821 327.335 5.52175 327.817 5.31342C328.312 5.09206 328.833 4.98138 329.38 4.98138H345.376C345.923 4.98138 346.437 5.09206 346.919 5.31342C347.414 5.52175 347.843 5.80821 348.208 6.17279C348.572 6.52435 348.859 6.94753 349.067 7.44232C349.276 7.92409 349.38 8.43842 349.38 8.98529V28.9853ZM329.38 8.98529V28.9853H345.376V8.98529H329.38ZM378.316 14.9814C378.316 18.8876 376.649 21.1142 373.316 21.6611L378.589 32.9892H374.155L368.96 21.7978H360.191V32.9892H356.187V4.98138H371.519C376.05 4.98138 378.316 7.25352 378.316 11.7978V14.9814ZM360.191 17.7939H371.304C372.372 17.7939 373.14 17.5595 373.609 17.0908C374.077 16.622 374.312 15.8538 374.312 14.7861V11.9931C374.312 10.9254 374.077 10.1572 373.609 9.68842C373.14 9.21967 372.372 8.98529 371.304 8.98529H360.191V17.7939Z" fill="black"/>
<path d="M8.87109 11.8923C8.87109 6.42925 13.7433 1.99997 19.7527 1.99997C25.7621 1.99997 30.6343 6.42925 30.6343 11.8923" stroke="#6100FF" stroke-width="3.95695" stroke-miterlimit="10" stroke-linecap="round"/>
<path d="M30.6343 25.7416C30.6343 31.2047 25.7621 35.634 19.7527 35.634C13.7433 35.634 8.87109 31.2047 8.87109 25.7416" stroke="#6100FF" stroke-width="3.95695" stroke-miterlimit="10" stroke-linecap="round"/>
<path d="M36.5716 18.817H31.4046H8.10446H2.9375" stroke="#6100FF" stroke-width="3.95695" stroke-miterlimit="10" stroke-linecap="round"/>
<path d="M19.7539 34.6448V27.7201" stroke="#6100FF" stroke-width="3.95695" stroke-miterlimit="10" stroke-linecap="round"/>
<path d="M8.87109 1.99997L11.8388 4.96768" stroke="#6100FF" stroke-width="3.95695" stroke-miterlimit="10" stroke-linecap="round"/>
<path d="M30.6357 1.99997L27.668 4.96768" stroke="#6100FF" stroke-width="3.95695" stroke-miterlimit="10" stroke-linecap="round"/>
<path d="M8.87109 36.6233L11.8388 33.6555" stroke="#6100FF" stroke-width="3.95695" stroke-miterlimit="10" stroke-linecap="round"/>
<path d="M30.6357 36.6233L27.668 33.6555" stroke="#6100FF" stroke-width="3.95695" stroke-miterlimit="10" stroke-linecap="round"/>
</svg>
