<svg width="378" height="39" viewBox="0 0 378 39" fill="none" xmlns="http://www.w3.org/2000/svg">
<path d="M377.379 14.9814C377.379 18.8877 375.712 21.1143 372.379 21.6611L377.652 32.9893H373.219L368.023 21.7979H359.254V32.9893H355.25V4.98145H370.582C375.113 4.98145 377.379 7.25358 377.379 11.7979V14.9814ZM359.254 17.7939H370.367C371.435 17.7939 372.203 17.5596 372.672 17.0908C373.141 16.6221 373.375 15.8538 373.375 14.7861V11.9932C373.375 10.9255 373.141 10.1572 372.672 9.68848C372.203 9.21973 371.435 8.98535 370.367 8.98535H359.254V17.7939Z" fill="black"/>
<path d="M348.443 28.9854C348.443 29.5322 348.339 30.0531 348.131 30.5479C347.923 31.0296 347.636 31.4528 347.271 31.8174C346.907 32.182 346.477 32.4684 345.982 32.6768C345.501 32.8851 344.986 32.9893 344.439 32.9893H328.443C327.896 32.9893 327.376 32.8851 326.881 32.6768C326.399 32.4684 325.976 32.182 325.611 31.8174C325.247 31.4528 324.96 31.0296 324.752 30.5479C324.544 30.0531 324.439 29.5322 324.439 28.9854V8.98535C324.439 8.43848 324.544 7.92415 324.752 7.44238C324.96 6.94759 325.247 6.52441 325.611 6.17285C325.976 5.80827 326.399 5.52181 326.881 5.31348C327.376 5.09212 327.896 4.98145 328.443 4.98145H344.439C344.986 4.98145 345.501 5.09212 345.982 5.31348C346.477 5.52181 346.907 5.80827 347.271 6.17285C347.636 6.52441 347.923 6.94759 348.131 7.44238C348.339 7.92415 348.443 8.43848 348.443 8.98535V28.9854ZM328.443 8.98535V28.9854H344.439V8.98535H328.443Z" fill="black"/>
<path d="M297.633 4.98145H320.035V8.98535H310.836V32.9893H306.832V8.98535H297.633V4.98145Z" fill="black"/>
<path d="M270.826 8.98535C270.826 8.43848 270.93 7.92415 271.139 7.44238C271.347 6.94759 271.633 6.52441 271.998 6.17285C272.363 5.80827 272.786 5.52181 273.268 5.31348C273.762 5.09212 274.283 4.98145 274.83 4.98145H290.025C290.572 4.98145 291.087 5.09212 291.568 5.31348C292.063 5.52181 292.493 5.80827 292.857 6.17285C293.222 6.52441 293.508 6.94759 293.717 7.44238C293.925 7.92415 294.029 8.43848 294.029 8.98535V12.5986H290.025V8.98535H274.83V28.9854H290.025V25.3916H294.029V28.9854C294.029 29.5322 293.925 30.0531 293.717 30.5479C293.508 31.0296 293.222 31.4528 292.857 31.8174C292.493 32.182 292.063 32.4684 291.568 32.6768C291.087 32.8851 290.572 32.9893 290.025 32.9893H274.83C274.283 32.9893 273.762 32.8851 273.268 32.6768C272.786 32.4684 272.363 32.182 271.998 31.8174C271.633 31.4528 271.347 31.0296 271.139 30.5479C270.93 30.0531 270.826 29.5322 270.826 28.9854V8.98535Z" fill="black"/>
<path d="M244.818 4.98145H265.229V8.98535H248.822V16.9932H262.826V20.9971H248.822V28.9854H265.229V32.9893H244.818V4.98145Z" fill="black"/>
<path d="M218.012 4.98145H240.414V8.98535H231.215V32.9893H227.211V8.98535H218.012V4.98145Z" fill="black"/>
<path d="M194.408 4.98145H214.818V8.98535H198.412V16.9932H212.416V20.9971H198.412V28.9854H214.818V32.9893H194.408V4.98145Z" fill="black"/>
<path d="M178.578 28.9854C180.44 28.9854 181.872 28.484 182.875 27.4814C183.878 26.4788 184.379 25.0465 184.379 23.1846V14.7861C184.379 13.8747 184.249 13.0609 183.988 12.3447C183.728 11.6286 183.344 11.0231 182.836 10.5283C182.341 10.0205 181.736 9.63639 181.02 9.37598C180.303 9.11556 179.49 8.98535 178.578 8.98535H168.344V28.9854H178.578ZM164.34 32.9893V4.98145H178.578C180.076 4.98145 181.423 5.21582 182.621 5.68457C183.832 6.1403 184.861 6.79785 185.707 7.65723C186.566 8.50358 187.224 9.53223 187.68 10.7432C188.148 11.9541 188.383 13.3018 188.383 14.7861V23.1846C188.383 24.6689 188.148 26.0166 187.68 27.2275C187.224 28.4385 186.566 29.4736 185.707 30.333C184.861 31.1794 183.832 31.8369 182.621 32.3057C181.423 32.7614 180.076 32.9893 178.578 32.9893H164.34Z" fill="black"/>
<path d="M131.127 32.9893L123.119 4.98145H127.123L133.334 27.2666L139.525 4.98145H143.529L149.721 27.2666L155.932 4.98145H159.936L151.928 32.9893H147.533L141.537 11.9932L135.521 32.9893H131.127Z" fill="black"/>
<path d="M111.916 4.98145L122.717 32.9893H118.713L116.232 26.5439H103.596L101.115 32.9893H97.1113L107.912 4.98145H111.916ZM105.119 22.54H114.689L109.924 10.1963L105.119 22.54Z" fill="black"/>
<path d="M80.7148 4.98145V28.9854H95.1094V32.9893H76.7109V4.98145H80.7148Z" fill="black"/>
<path d="M51.0957 4.98145H71.5059V8.98535H55.0996V16.9932H69.1035V20.9971H55.0996V32.9893H51.0957V4.98145Z" fill="black"/>
<path fill-rule="evenodd" clip-rule="evenodd" d="M9.91398 11.8923C9.91398 7.69514 13.7187 3.97843 18.8171 3.97843C23.9155 3.97843 27.7202 7.69514 27.7202 11.8923C27.7202 12.985 28.606 13.8708 29.6987 13.8708C30.7914 13.8708 31.6772 12.985 31.6772 11.8923C31.6772 9.33938 30.8222 7.01488 29.3831 5.11296L31.0971 3.39895C31.8698 2.62631 31.8698 1.37361 31.0971 0.600966C30.3245 -0.171676 29.0718 -0.171676 28.2991 0.600966L26.5152 2.38488C24.3454 0.891796 21.6643 0.0214844 18.8171 0.0214844C15.9698 0.0214844 13.2885 0.891888 11.1187 2.38512L9.3345 0.600966C8.56186 -0.171676 7.30915 -0.171676 6.53651 0.600966C5.76387 1.37361 5.76387 2.62631 6.53651 3.39895L8.25086 5.1133C6.81189 7.01515 5.95703 9.33952 5.95703 11.8923C5.95703 12.985 6.84282 13.8708 7.93551 13.8708C9.02819 13.8708 9.91398 12.985 9.91398 11.8923ZM9.91398 25.7412C9.91398 24.6485 9.02819 23.7627 7.93551 23.7627C6.84282 23.7627 5.95703 24.6485 5.95703 25.7412C5.95703 28.5449 6.98821 31.0731 8.69186 33.0686L6.53651 35.2239C5.76387 35.9966 5.76387 37.2493 6.53651 38.0219C7.30915 38.7946 8.56186 38.7946 9.3345 38.0219L11.7189 35.6376C13.7742 36.8917 16.227 37.612 18.8171 37.612C21.4071 37.612 23.8597 36.8918 25.915 35.6378L28.2991 38.0219C29.0718 38.7946 30.3245 38.7946 31.0971 38.0219C31.8698 37.2493 31.8698 35.9966 31.0971 35.2239L28.9421 33.0689C30.6459 31.0734 31.6772 28.545 31.6772 25.7412C31.6772 24.6485 30.7914 23.7627 29.6987 23.7627C28.606 23.7627 27.7202 24.6485 27.7202 25.7412C27.7202 29.3748 24.8687 32.6483 20.7948 33.4619V27.7197C20.7948 26.627 19.909 25.7412 18.8164 25.7412C17.7237 25.7412 16.8379 26.627 16.8379 27.7197V33.4616C12.7649 32.6475 9.91398 29.3743 9.91398 25.7412ZM0.0214844 18.8173C0.0214844 17.7247 0.907277 16.8389 1.99996 16.8389H35.634C36.7267 16.8389 37.6125 17.7247 37.6125 18.8173C37.6125 19.91 36.7267 20.7958 35.634 20.7958H1.99996C0.907277 20.7958 0.0214844 19.91 0.0214844 18.8173Z" fill="#6100FF"/>
</svg>
