<svg width="237" height="54" viewBox="0 0 237 54" fill="none" xmlns="http://www.w3.org/2000/svg">
<g clip-path="url(#clip0_14_3)">
<path d="M22.5 20.57C23.11 20.57 23.6 20.08 23.6 19.47V15.6C23.6 14.99 23.11 14.5 22.5 14.5C21.89 14.5 21.4 14.99 21.4 15.6V19.47C21.4 20.08 21.89 20.57 22.5 20.57Z" fill="#6100FF"/>
<path d="M31.5 20.57C32.11 20.57 32.6 20.08 32.6 19.47V15.6C32.6 14.99 32.11 14.5 31.5 14.5C30.89 14.5 30.4 14.99 30.4 15.6V19.47C30.4 20.08 30.89 20.57 31.5 20.57Z" fill="#6100FF"/>
<path d="M27 54C41.91 54 54 41.91 54 27C54 12.09 41.91 0 27 0C12.09 0 0 12.09 0 27C0 41.91 12.09 54 27 54ZM39.28 45.71C38.51 46.48 37.25 46.48 36.48 45.71L34.68 43.91C32.53 45.39 29.88 46.29 26.99 46.29C24.1 46.29 21.45 45.4 19.3 43.91L17.5 45.71C16.73 46.48 15.47 46.48 14.7 45.71C13.93 44.94 13.93 43.68 14.7 42.91L16.43 41.18C14.98 39.26 14.12 36.93 14.12 34.41C14.12 33.32 15.01 32.43 16.1 32.43C17.19 32.43 18.08 33.32 18.08 34.41C18.08 38.77 22.07 42.32 26.98 42.32C31.89 42.32 35.88 38.77 35.88 34.41C35.88 33.32 36.77 32.43 37.86 32.43C38.95 32.43 39.84 33.32 39.84 34.41C39.84 36.92 38.98 39.25 37.53 41.18L39.26 42.91C40.03 43.68 40.03 44.94 39.26 45.71H39.28ZM14.72 8.29C15.11 7.9 15.61 7.71 16.12 7.71C16.63 7.71 17.13 7.9 17.52 8.29L19.91 10.68C21.94 9.43 24.38 8.7 27 8.7C29.62 8.7 32.06 9.43 34.09 10.68L36.48 8.29C36.87 7.9 37.37 7.71 37.88 7.71C38.39 7.71 38.89 7.9 39.28 8.29C40.05 9.06 40.05 10.32 39.28 11.09L37.11 13.26C38.83 15.28 39.86 17.81 39.86 20.57C39.86 21.66 38.97 22.55 37.88 22.55H16.12C15.03 22.55 14.14 21.66 14.14 20.57C14.14 17.81 15.17 15.28 16.89 13.26L14.72 11.09C13.95 10.32 13.95 9.06 14.72 8.29ZM10.18 25.52H43.81C44.9 25.52 45.79 26.41 45.79 27.5C45.79 28.59 44.9 29.48 43.81 29.48H10.18C9.09 29.48 8.2 28.59 8.2 27.5C8.2 26.41 9.09 25.52 10.18 25.52Z" fill="#6100FF"/>
<path d="M64.45 27.6699V26.7199C64.45 15.4599 71.4 11.7899 79.16 11.7899C83.09 11.7899 85.81 12.6099 87.53 13.4699V18.2199C85.76 17.5699 83.47 16.6699 79.68 16.6699C72.91 16.6699 70.88 20.9399 70.88 26.3399V27.6799C70.88 33.6799 72.35 37.7299 78.82 37.7299C80.42 37.7299 82.01 37.3799 82.96 37.0799V30.8699H77.82V26.5599H88.87V40.5399C86.63 41.3999 82.96 42.3499 78.95 42.3499C70.06 42.3499 64.45 38.1599 64.45 27.6799V27.6699Z" fill="#6100FF"/>
<path d="M92.37 30.95V30.39C92.37 23.01 96.81 19.13 102.86 19.13C109.63 19.13 112.48 22.97 112.48 30.13V32.2H98.15C98.54 36.51 100.87 37.94 104.92 37.94C107.68 37.94 109.8 37.29 111.69 36.47V40.18C110.14 41.22 107.5 42.25 103.62 42.25C96.11 42.25 92.36 38.11 92.36 30.94H92.37V30.95ZM98.15 28.54H106.91C106.91 24.61 105.49 23.15 102.72 23.15C100.69 23.15 98.45 24.32 98.15 28.54Z" fill="#6100FF"/>
<path d="M115.2 30.95V30.39C115.2 23.01 119.64 19.13 125.69 19.13C132.46 19.13 135.31 22.97 135.31 30.13V32.2H120.98C121.37 36.51 123.7 37.94 127.75 37.94C130.51 37.94 132.63 37.29 134.52 36.47V40.18C132.97 41.22 130.33 42.25 126.45 42.25C118.94 42.25 115.19 38.11 115.19 30.94H115.2V30.95ZM120.98 28.54H129.74C129.74 24.61 128.32 23.15 125.55 23.15C123.52 23.15 121.28 24.32 120.98 28.54Z" fill="#6100FF"/>
<path d="M139.15 10.33H144.85V41.87H139.15V10.33ZM144.93 30.31C147.86 25.95 149.42 23.84 152.44 19.57H158.22L150.8 29.93C153.95 34.72 155.55 37.09 158.74 41.88H152.61C149.46 37.22 147.91 34.98 144.93 30.32V30.31Z" fill="#6100FF"/>
<path d="M162.37 12.2699H168.5V24.3099H180.19V12.2699H186.36V41.8699H180.19V28.9699H168.5V41.8699H162.37V12.2699Z" fill="#6100FF"/>
<path d="M191.75 35.7899V19.5199H197.4V34.6199C197.4 36.9099 198.22 37.8099 200.81 37.8099C202.54 37.8099 204.05 37.1599 205.3 36.5199V19.5199H210.95V41.8699H206.07L205.55 39.8799H205.33C203.47 41.2999 201.32 42.2499 198.51 42.2499C194.24 42.2499 191.74 40.1799 191.74 35.7799H191.75V35.7899Z" fill="#6100FF"/>
<path d="M216.01 40.97V10.33H221.66V20.99H221.92C223.47 19.91 225.46 19.09 228.39 19.09C232.58 19.09 236.81 21.64 236.81 29.83V30.39C236.81 38.5 232.71 42.34 225.03 42.34C221.79 42.34 218.21 41.78 216.01 40.96V40.97ZM230.98 31.17V30.39C230.98 25.13 229.34 23.62 225.76 23.62C224.08 23.62 222.52 24.27 221.66 24.61V37.51C222.44 37.81 223.6 38.11 225.33 38.11C228.35 38.11 230.98 36.64 230.98 31.16V31.17Z" fill="#6100FF"/>
</g>
<defs>
<clipPath id="clip0_14_3">
<rect width="236.81" height="54" fill="white"/>
</clipPath>
</defs>
</svg>
