<svg width="381" height="42" viewBox="0 0 381 42" fill="none" xmlns="http://www.w3.org/2000/svg">
<path d="M51.0965 4.98145H71.5066V8.98535H55.1004V16.9932H69.1043V20.9971H55.1004V32.9893H51.0965V4.98145ZM80.716 4.98145V28.9854H95.1105V32.9893H76.7121V4.98145H80.716ZM111.918 4.98145L122.718 32.9893H118.714L116.234 26.5439H103.597L101.117 32.9893H97.1129L107.914 4.98145H111.918ZM105.121 22.54H114.691L109.925 10.1963L105.121 22.54ZM131.127 32.9893L123.119 4.98145H127.123L133.334 27.2666L139.525 4.98145H143.529L149.721 27.2666L155.932 4.98145H159.936L151.928 32.9893H147.533L141.537 11.9932L135.521 32.9893H131.127ZM178.579 28.9854C180.44 28.9854 181.873 28.484 182.875 27.4814C183.878 26.4788 184.379 25.0465 184.379 23.1846V14.7861C184.379 13.8747 184.249 13.0609 183.989 12.3447C183.728 11.6286 183.344 11.0231 182.836 10.5283C182.342 10.0205 181.736 9.63639 181.02 9.37598C180.304 9.11556 179.49 8.98535 178.579 8.98535H168.344V28.9854H178.579ZM164.34 32.9893V4.98145H178.579C180.076 4.98145 181.424 5.21582 182.621 5.68457C183.832 6.1403 184.861 6.79785 185.707 7.65723C186.567 8.50358 187.224 9.53223 187.68 10.7432C188.149 11.9541 188.383 13.3018 188.383 14.7861V23.1846C188.383 24.6689 188.149 26.0166 187.68 27.2275C187.224 28.4385 186.567 29.4736 185.707 30.333C184.861 31.1794 183.832 31.8369 182.621 32.3057C181.424 32.7614 180.076 32.9893 178.579 32.9893H164.34ZM194.409 4.98145H214.819V8.98535H198.413V16.9932H212.417V20.9971H198.413V28.9854H214.819V32.9893H194.409V4.98145ZM218.013 4.98145H240.415V8.98535H231.216V32.9893H227.212V8.98535H218.013V4.98145ZM244.82 4.98145H265.23V8.98535H248.824V16.9932H262.828V20.9971H248.824V28.9854H265.23V32.9893H244.82V4.98145ZM270.826 8.98535C270.826 8.43848 270.93 7.92415 271.139 7.44238C271.347 6.94759 271.633 6.52441 271.998 6.17285C272.363 5.80827 272.786 5.52181 273.268 5.31348C273.762 5.09212 274.283 4.98145 274.83 4.98145H290.025C290.572 4.98145 291.087 5.09212 291.568 5.31348C292.063 5.52181 292.493 5.80827 292.857 6.17285C293.222 6.52441 293.508 6.94759 293.717 7.44238C293.925 7.92415 294.029 8.43848 294.029 8.98535V12.5986H290.025V8.98535H274.83V28.9854H290.025V25.3916H294.029V28.9854C294.029 29.5322 293.925 30.0531 293.717 30.5479C293.508 31.0296 293.222 31.4528 292.857 31.8174C292.493 32.182 292.063 32.4684 291.568 32.6768C291.087 32.8851 290.572 32.9893 290.025 32.9893H274.83C274.283 32.9893 273.762 32.8851 273.268 32.6768C272.786 32.4684 272.363 32.182 271.998 31.8174C271.633 31.4528 271.347 31.0296 271.139 30.5479C270.93 30.0531 270.826 29.5322 270.826 28.9854V8.98535ZM297.633 4.98145H320.036V8.98535H310.836V32.9893H306.832V8.98535H297.633V4.98145ZM348.444 28.9854C348.444 29.5322 348.34 30.0531 348.132 30.5479C347.923 31.0296 347.637 31.4528 347.272 31.8174C346.908 32.182 346.478 32.4684 345.983 32.6768C345.501 32.8851 344.987 32.9893 344.44 32.9893H328.444C327.897 32.9893 327.376 32.8851 326.882 32.6768C326.4 32.4684 325.977 32.182 325.612 31.8174C325.248 31.4528 324.961 31.0296 324.753 30.5479C324.544 30.0531 324.44 29.5322 324.44 28.9854V8.98535C324.44 8.43848 324.544 7.92415 324.753 7.44238C324.961 6.94759 325.248 6.52441 325.612 6.17285C325.977 5.80827 326.4 5.52181 326.882 5.31348C327.376 5.09212 327.897 4.98145 328.444 4.98145H344.44C344.987 4.98145 345.501 5.09212 345.983 5.31348C346.478 5.52181 346.908 5.80827 347.272 6.17285C347.637 6.52441 347.923 6.94759 348.132 7.44238C348.34 7.92415 348.444 8.43848 348.444 8.98535V28.9854ZM328.444 8.98535V28.9854H344.44V8.98535H328.444ZM377.38 14.9814C377.38 18.8877 375.713 21.1143 372.38 21.6611L377.654 32.9893H373.22L368.025 21.7979H359.255V32.9893H355.251V4.98145H370.583C375.114 4.98145 377.38 7.25358 377.38 11.7979V14.9814ZM359.255 17.7939H370.368C371.436 17.7939 372.204 17.5596 372.673 17.0908C373.142 16.6221 373.376 15.8538 373.376 14.7861V11.9932C373.376 10.9255 373.142 10.1572 372.673 9.68848C372.204 9.21973 371.436 8.98535 370.368 8.98535H359.255V17.7939Z" fill="black"/>
<path d="M7.93555 11.8924C7.93555 6.42928 12.8078 2 18.8172 2C24.8266 2 29.6988 6.42928 29.6988 11.8924" stroke="#6100FF" stroke-width="3.95695" stroke-miterlimit="10" stroke-linecap="round"/>
<path d="M29.6988 25.7417C29.6988 31.2048 24.8266 35.6341 18.8172 35.6341C12.8078 35.6341 7.93555 31.2048 7.93555 25.7417" stroke="#6100FF" stroke-width="3.95695" stroke-miterlimit="10" stroke-linecap="round"/>
<path d="M35.6341 18.8169H30.4671H7.16696H2" stroke="#6100FF" stroke-width="3.95695" stroke-miterlimit="10" stroke-linecap="round"/>
<path d="M18.8169 34.6449V27.7202" stroke="#6100FF" stroke-width="3.95695" stroke-miterlimit="10" stroke-linecap="round"/>
<path d="M7.93555 2L10.9033 4.96771" stroke="#6100FF" stroke-width="3.95695" stroke-miterlimit="10" stroke-linecap="round"/>
<path d="M29.6987 2L26.731 4.96771" stroke="#6100FF" stroke-width="3.95695" stroke-miterlimit="10" stroke-linecap="round"/>
<path d="M7.93555 36.6235L10.9033 33.6558" stroke="#6100FF" stroke-width="3.95695" stroke-miterlimit="10" stroke-linecap="round"/>
<path d="M29.6987 36.6235L26.731 33.6558" stroke="#6100FF" stroke-width="3.95695" stroke-miterlimit="10" stroke-linecap="round"/>
</svg>
