<svg width="25" height="23" viewBox="0 0 25 23" fill="none" xmlns="http://www.w3.org/2000/svg">
<path d="M12.5621 0.376465C5.87295 0.376465 0.478516 4.69197 0.478516 9.93104C0.478516 13.3317 2.7226 16.3094 6.08873 18.0097L4.94942 22.2649C4.92794 22.3287 4.92464 22.3971 4.93988 22.4627C4.95513 22.5282 4.98831 22.5882 5.03573 22.636C5.10488 22.697 5.19384 22.7307 5.28604 22.7309C5.36248 22.7248 5.435 22.6946 5.49318 22.6446L10.3956 19.339C11.1193 19.4388 11.8488 19.4907 12.5793 19.4943C19.2598 19.4943 24.6628 15.1787 24.6628 9.93104C24.6628 4.68334 19.2425 0.376465 12.5621 0.376465Z" fill="#392020"/>
<path d="M4.70723 8.42048H3.38668C3.223 8.42523 3.06135 8.38331 2.9206 8.29964C2.8581 8.26049 2.80438 8.20881 2.76279 8.14792C2.72121 8.08702 2.69265 8.01819 2.67893 7.94573C2.67473 7.8998 2.67473 7.85365 2.67893 7.80771C2.67482 7.72176 2.69151 7.63603 2.72757 7.5579C2.76363 7.47977 2.818 7.41152 2.88607 7.35888C3.03654 7.2499 3.21816 7.19233 3.40394 7.19483H7.38287C7.54785 7.18903 7.7106 7.23426 7.84895 7.32432C7.91292 7.36174 7.96777 7.41294 8.00957 7.47414C8.05136 7.53534 8.07904 7.60503 8.09062 7.67822C8.09483 7.72128 8.09483 7.76466 8.09062 7.80771C8.09469 7.8949 8.07804 7.9818 8.04204 8.06131C8.00603 8.14083 7.95169 8.21062 7.88348 8.26508C7.73667 8.37392 7.5568 8.42884 7.37424 8.42048H6.09684V12.9605C6.10203 13.0572 6.08706 13.1539 6.05289 13.2445C6.01871 13.3351 5.96608 13.4177 5.89832 13.4869C5.83335 13.5531 5.75525 13.605 5.66903 13.6392C5.58282 13.6734 5.49039 13.6891 5.39772 13.6854C5.23562 13.6901 5.07696 13.6383 4.9489 13.5388C4.82698 13.4416 4.74424 13.3036 4.71587 13.1503C4.70734 13.0873 4.70734 13.0235 4.71587 12.9605L4.70723 8.42048Z" fill="#FEE500"/>
<path d="M8.47101 7.53166C8.50897 7.38963 8.59812 7.26664 8.72131 7.1864C8.85257 7.112 9.00214 7.07611 9.15287 7.08283H9.48085C9.64078 7.0771 9.79916 7.11595 9.93829 7.19504C10.0857 7.29418 10.1905 7.44514 10.2318 7.61795L11.958 12.4945C12.0027 12.6218 12.0402 12.7515 12.0702 12.883C12.0731 12.9376 12.0731 12.9923 12.0702 13.0469C12.0731 13.1311 12.0576 13.2148 12.0248 13.2923C11.992 13.3698 11.9427 13.4393 11.8803 13.4958C11.8198 13.5578 11.7472 13.6066 11.667 13.6393C11.5868 13.6719 11.5008 13.6877 11.4142 13.6856C11.2811 13.6989 11.1474 13.6669 11.0346 13.5949C10.9219 13.5229 10.8367 13.415 10.7928 13.2886L10.4303 12.227H8.16029L7.79778 13.2886C7.75491 13.4175 7.66868 13.5275 7.55378 13.5999C7.43889 13.6723 7.30245 13.7026 7.16771 13.6856C7.02176 13.6895 6.8788 13.6438 6.76205 13.5562C6.6483 13.4657 6.57156 13.3368 6.54627 13.1937C6.54169 13.1449 6.54169 13.0957 6.54627 13.0469C6.53145 12.9613 6.53145 12.8738 6.54627 12.7881C6.54627 12.6931 6.60669 12.5895 6.64121 12.4945L8.47101 7.53166ZM9.33412 8.66239L8.51416 11.2517H10.1454L9.33412 8.66239Z" fill="#FEE500"/>
<path d="M12.2683 7.80784C12.2596 7.61414 12.3278 7.42487 12.4582 7.28135C12.5245 7.2145 12.6041 7.16225 12.6918 7.12806C12.7795 7.09386 12.8734 7.07839 12.9674 7.08275C13.1291 7.08086 13.2869 7.13248 13.4163 7.22952C13.5361 7.33076 13.6158 7.47159 13.6407 7.62651C13.6492 7.68663 13.6492 7.74772 13.6407 7.80784V12.3478H16.0142C16.1787 12.3457 16.3405 12.3905 16.4803 12.4772C16.5431 12.5159 16.5971 12.5675 16.6388 12.6285C16.6804 12.6894 16.7088 12.7585 16.722 12.8311C16.722 12.8311 16.722 12.9174 16.722 12.9606C16.7261 13.0465 16.7094 13.1322 16.6733 13.2103C16.6373 13.2884 16.5829 13.3568 16.5148 13.4094C16.3644 13.5184 16.1827 13.5759 15.997 13.5734H13.0796C12.8938 13.5853 12.7092 13.5369 12.5532 13.4353C12.4136 13.331 12.3206 13.176 12.2942 13.0038C12.2879 12.9089 12.2879 12.8137 12.2942 12.7189L12.2683 7.80784Z" fill="#FEE500"/>
<path d="M16.8785 7.80796C16.8733 7.61482 16.9411 7.42685 17.0684 7.28147C17.1977 7.16393 17.3637 7.09452 17.5382 7.08508C17.7127 7.07565 17.8852 7.12672 18.0264 7.22964C18.1489 7.32999 18.2316 7.47075 18.2595 7.62663C18.2637 7.68698 18.2637 7.74761 18.2595 7.80796V9.92253L20.4431 7.40222C20.5273 7.31624 20.6166 7.23561 20.7107 7.16063C20.7993 7.10783 20.901 7.08085 21.0042 7.08287C21.155 7.08205 21.3025 7.12723 21.4271 7.21236C21.4858 7.25187 21.5359 7.30286 21.5744 7.36218C21.613 7.4215 21.6392 7.48795 21.6515 7.55762C21.655 7.57471 21.655 7.59237 21.6515 7.60946C21.6473 7.62938 21.6473 7.64991 21.6515 7.66983C21.6512 7.76065 21.6274 7.84989 21.5824 7.92881C21.5366 8.01236 21.4816 8.09044 21.4185 8.16176L19.9857 9.73268L21.7119 12.4083V12.4946C21.8015 12.6183 21.8714 12.7552 21.9191 12.9003V12.9434C21.929 13.0434 21.9146 13.1444 21.877 13.2376C21.8395 13.3308 21.7798 13.4134 21.7033 13.4785C21.5593 13.5874 21.3831 13.6451 21.2027 13.6426C21.0828 13.6475 20.9637 13.6207 20.8574 13.5648C20.7425 13.4877 20.6477 13.3841 20.5812 13.2628L18.9759 10.6734L18.2077 11.4762V12.9175C18.2129 13.1106 18.1451 13.2986 18.0178 13.444C17.9496 13.5106 17.8685 13.5627 17.7794 13.5969C17.6903 13.631 17.5952 13.6466 17.4999 13.6426C17.3407 13.6459 17.1852 13.594 17.0597 13.4958C16.9378 13.3986 16.8551 13.2608 16.8267 13.1075C16.8182 13.0445 16.8182 12.9805 16.8267 12.9175L16.8785 7.80796Z" fill="#FEE500"/>
</svg>
