<svg width="23" height="23" viewBox="0 0 23 23" fill="none" xmlns="http://www.w3.org/2000/svg">
<path d="M18.8686 4.13263C18.436 3.69718 17.9216 3.3516 17.3549 3.11578C16.7883 2.87995 16.1806 2.75854 15.5668 2.75854C14.953 2.75854 14.3453 2.87995 13.7787 3.11578C13.212 3.3516 12.6976 3.69718 12.2651 4.13263L10.4861 5.91153C10.3623 6.04826 10.2957 6.22739 10.3002 6.41183C10.3048 6.59628 10.3801 6.77191 10.5105 6.90237C10.641 7.03284 10.8166 7.10813 11.0011 7.11267C11.1855 7.11721 11.3647 7.05065 11.5014 6.92677L13.2803 5.14786C13.888 4.54381 14.71 4.20476 15.5668 4.20476C16.4236 4.20476 17.2457 4.54381 17.8533 5.14786C18.1546 5.44758 18.3936 5.80387 18.5568 6.19627C18.7199 6.58867 18.8039 7.00943 18.8039 7.43439C18.8039 7.85934 18.7199 8.2801 18.5568 8.6725C18.3936 9.0649 18.1546 9.42119 17.8533 9.72091L15.3108 12.2635C14.7031 12.8675 13.8811 13.2066 13.0242 13.2066C12.1674 13.2066 11.3454 12.8675 10.7377 12.2635C10.6723 12.1913 10.593 12.1332 10.5045 12.0927C10.4159 12.0521 10.3201 12.03 10.2228 12.0276C10.1254 12.0252 10.0286 12.0426 9.93822 12.0787C9.84781 12.1149 9.76569 12.169 9.69685 12.2379C9.628 12.3067 9.57386 12.3888 9.5377 12.4792C9.50155 12.5696 9.48415 12.6664 9.48655 12.7638C9.48894 12.8611 9.51109 12.957 9.55165 13.0455C9.5922 13.134 9.65032 13.2133 9.72247 13.2787C10.5985 14.1538 11.786 14.6453 13.0242 14.6453C14.2624 14.6453 15.45 14.1538 16.326 13.2787L18.8686 10.7361C19.304 10.3036 19.6496 9.78918 19.8854 9.22252C20.1212 8.65586 20.2426 8.04816 20.2426 7.43439C20.2426 6.82062 20.1212 6.21291 19.8854 5.64625C19.6496 5.07959 19.304 4.56518 18.8686 4.13263Z" fill="#6100FF"/>
<path d="M11.4993 16.0733L9.72041 17.8522C9.10966 18.4373 8.294 18.7599 7.44824 18.7509C6.60248 18.7418 5.79392 18.4018 5.19585 17.8037C4.59777 17.2056 4.25777 16.3971 4.24871 15.5513C4.23964 14.7056 4.56224 13.8899 5.14737 13.2792L7.68995 10.7366C8.29763 10.1325 9.11964 9.79347 9.97647 9.79347C10.8333 9.79347 11.6553 10.1325 12.263 10.7366C12.3997 10.8605 12.5788 10.927 12.7633 10.9225C12.9477 10.9179 13.1234 10.8426 13.2538 10.7122C13.3843 10.5817 13.4596 10.4061 13.4641 10.2216C13.4687 10.0372 13.4021 9.85806 13.2782 9.72134C12.4022 8.84627 11.2147 8.35474 9.97647 8.35474C8.73827 8.35474 7.55071 8.84627 6.67471 9.72134L4.13213 12.2639C3.67504 12.6921 3.30871 13.2079 3.05494 13.7805C2.80117 14.3531 2.66513 14.971 2.65492 15.5972C2.64471 16.2235 2.76052 16.8454 2.99549 17.426C3.23045 18.0066 3.57977 18.534 4.02266 18.9769C4.46555 19.4198 4.99297 19.7691 5.57357 20.0041C6.15417 20.239 6.77609 20.3549 7.40235 20.3446C8.02861 20.3344 8.64642 20.1984 9.21905 19.9446C9.79168 19.6909 10.3074 19.3245 10.7356 18.8674L12.5146 17.0885C12.6384 16.9518 12.705 16.7727 12.7005 16.5882C12.6959 16.4038 12.6206 16.2282 12.4902 16.0977C12.3597 15.9672 12.1841 15.8919 11.9996 15.8874C11.8152 15.8828 11.636 15.9494 11.4993 16.0733Z" fill="#4968F6"/>
</svg>
