<svg width="369" height="39" viewBox="0 0 369 39" fill="none" xmlns="http://www.w3.org/2000/svg">
<path d="M55.9414 1.99219V25.9961H70.3359V30H51.9375V1.99219H55.9414ZM115.145 25.9961C115.145 26.543 115.04 27.0638 114.832 27.5586C114.624 28.0404 114.337 28.4635 113.973 28.8281C113.608 29.1927 113.178 29.4792 112.684 29.6875C112.202 29.8958 111.688 30 111.141 30H95.1445C94.5977 30 94.0768 29.8958 93.582 29.6875C93.1003 29.4792 92.6771 29.1927 92.3125 28.8281C91.9479 28.4635 91.6615 28.0404 91.4531 27.5586C91.2448 27.0638 91.1406 26.543 91.1406 25.9961V5.99609C91.1406 5.44922 91.2448 4.9349 91.4531 4.45312C91.6615 3.95833 91.9479 3.53516 92.3125 3.18359C92.6771 2.81901 93.1003 2.53255 93.582 2.32422C94.0768 2.10286 94.5977 1.99219 95.1445 1.99219H111.141C111.688 1.99219 112.202 2.10286 112.684 2.32422C113.178 2.53255 113.608 2.81901 113.973 3.18359C114.337 3.53516 114.624 3.95833 114.832 4.45312C115.04 4.9349 115.145 5.44922 115.145 5.99609V25.9961ZM95.1445 5.99609V25.9961H111.141V5.99609H95.1445ZM152.59 25.9961C154.452 25.9961 155.884 25.4948 156.887 24.4922C157.889 23.4896 158.391 22.0573 158.391 20.1953V11.7969C158.391 10.8854 158.26 10.0716 158 9.35547C157.74 8.63932 157.355 8.03385 156.848 7.53906C156.353 7.03125 155.747 6.64714 155.031 6.38672C154.315 6.1263 153.501 5.99609 152.59 5.99609H142.355V25.9961H152.59ZM138.352 30V1.99219H152.59C154.087 1.99219 155.435 2.22656 156.633 2.69531C157.844 3.15104 158.872 3.80859 159.719 4.66797C160.578 5.51432 161.236 6.54297 161.691 7.75391C162.16 8.96484 162.395 10.3125 162.395 11.7969V20.1953C162.395 21.6797 162.16 23.0273 161.691 24.2383C161.236 25.4492 160.578 26.4844 159.719 27.3438C158.872 28.1901 157.844 28.8477 156.633 29.3164C155.435 29.7721 154.087 30 152.59 30H138.352ZM188.824 1.99219V30H184.82V1.99219H188.824ZM216.035 30H212.031V1.99219H216.035L232.871 23.7109V1.99219H236.875V30H232.871L216.035 8.28125V30ZM260.062 5.99609C260.062 5.44922 260.167 4.9349 260.375 4.45312C260.583 3.95833 260.87 3.53516 261.234 3.18359C261.599 2.81901 262.022 2.53255 262.504 2.32422C262.999 2.10286 263.52 1.99219 264.066 1.99219H279.262C279.809 1.99219 280.323 2.10286 280.805 2.32422C281.299 2.53255 281.729 2.81901 282.094 3.18359C282.458 3.53516 282.745 3.95833 282.953 4.45312C283.161 4.9349 283.266 5.44922 283.266 5.99609V9.60938H279.262V5.99609H264.066V25.9961H279.262V19.1992H271.664V15.1953H283.266V25.9961C283.266 26.543 283.161 27.0638 282.953 27.5586C282.745 28.0404 282.458 28.4635 282.094 28.8281C281.729 29.1927 281.299 29.4792 280.805 29.6875C280.323 29.8958 279.809 30 279.262 30H264.066C263.52 30 262.999 29.8958 262.504 29.6875C262.022 29.4792 261.599 29.1927 261.234 28.8281C260.87 28.4635 260.583 28.0404 260.375 27.5586C260.167 27.0638 260.062 26.543 260.062 25.9961V5.99609ZM306.062 13.2812H311.902V19.1211H306.062V13.2812ZM334.328 13.2812H340.168V19.1211H334.328V13.2812ZM362.594 13.2812H368.434V19.1211H362.594V13.2812Z" fill="black"/>
</svg>
