<svg width="33" height="32" viewBox="0 0 33 32" fill="none" xmlns="http://www.w3.org/2000/svg">
<path fill-rule="evenodd" clip-rule="evenodd" d="M20.2235 6.1462L26.2901 12.2129C27.3987 13.3262 27.3987 15.1262 26.2901 16.2395L22.5701 19.9595C22.3587 20.1777 22.1792 20.4245 22.0368 20.6929L19.9835 24.8129C19.5703 25.6307 18.791 26.2018 17.8867 26.3494C16.9824 26.497 16.062 26.2035 15.4101 25.5595L11.8501 21.9995L7.54346 26.3062C7.35695 26.495 7.10221 26.6008 6.83679 26.5995C6.57045 26.6055 6.31391 26.4991 6.13012 26.3062C5.93953 26.1205 5.83203 25.8656 5.83203 25.5995C5.83203 25.3334 5.93953 25.0786 6.13012 24.8929L10.4368 20.5862L6.87679 17.0262C6.22707 16.3769 5.92963 15.4546 6.07763 14.5481C6.22564 13.6416 6.80098 12.8618 7.62346 12.4529L11.7435 10.3995C12.0118 10.2572 12.2587 10.0776 12.4768 9.8662L16.2235 6.1462C17.3365 5.06227 19.1104 5.06227 20.2235 6.1462ZM21.0635 18.4395L24.7701 14.7329C25.0594 14.4634 25.0773 14.011 24.8101 13.7195L18.7568 7.6662C18.6237 7.52935 18.441 7.45214 18.2501 7.45214C18.0593 7.45214 17.8765 7.52935 17.7435 7.6662L14.0368 11.3729C13.6472 11.7558 13.1966 12.0713 12.7035 12.3062L8.58345 14.3729C8.37495 14.4697 8.22949 14.6653 8.19679 14.8929C8.15351 15.1181 8.22906 15.3498 8.39679 15.5062L16.9301 24.0395C17.0563 24.1781 17.236 24.2558 17.4235 24.2529C17.697 24.2575 17.9477 24.1008 18.0635 23.8529L20.1301 19.7729C20.3651 19.2797 20.6805 18.8291 21.0635 18.4395Z" fill="#6100FF"/>
</svg>
