<svg width="33" height="33" viewBox="0 0 33 33" fill="none" xmlns="http://www.w3.org/2000/svg">
<path d="M30.353 10.6275L22.7667 3.04249C22.581 2.85673 22.3605 2.70937 22.1178 2.60883C21.8751 2.50829 21.615 2.45654 21.3523 2.45654C21.0897 2.45654 20.8295 2.50829 20.5869 2.60883C20.3442 2.70937 20.1237 2.85673 19.938 3.04249L13.2342 9.76749C11.9017 9.34999 8.85921 8.84624 5.68421 11.41C5.46537 11.586 5.28604 11.8061 5.15789 12.0559C5.02974 12.3058 4.95565 12.5799 4.94044 12.8603C4.92523 13.1407 4.96923 13.4211 5.0696 13.6834C5.16997 13.9457 5.32444 14.1839 5.52296 14.3825L11.563 20.42L6.23046 25.7487C6.04282 25.9364 5.93741 26.1909 5.93741 26.4562C5.93741 26.7216 6.04282 26.9761 6.23046 27.1637C6.4181 27.3514 6.6726 27.4568 6.93796 27.4568C7.20333 27.4568 7.45782 27.3514 7.64546 27.1637L12.9742 21.8312L19.0105 27.8675C19.196 28.0538 19.4165 28.2018 19.6593 28.3028C19.9021 28.4038 20.1625 28.456 20.4255 28.4562C20.473 28.4562 20.5192 28.4562 20.5667 28.4562C20.8518 28.4365 21.1293 28.3556 21.3804 28.2191C21.6314 28.0825 21.8502 27.8936 22.0217 27.665C24.4767 24.4025 24.2405 21.75 23.6705 20.165L30.3542 13.4562C30.5399 13.2704 30.6872 13.0499 30.7876 12.8071C30.888 12.5644 30.9397 12.3043 30.9395 12.0416C30.9394 11.7789 30.8876 11.5188 30.7869 11.2762C30.6863 11.0336 30.5388 10.8131 30.353 10.6275ZM28.938 12.0425L21.7792 19.225C21.6314 19.3734 21.5339 19.5645 21.5004 19.7712C21.467 19.978 21.4994 20.1901 21.593 20.3775C22.7755 22.7437 21.368 25.2012 20.4255 26.455L6.93796 12.9662C8.44796 11.7487 9.89296 11.4275 10.998 11.4275C11.6991 11.4179 12.3945 11.5555 13.0392 11.8312C13.2273 11.9254 13.4403 11.9578 13.6479 11.9239C13.8555 11.89 14.0471 11.7916 14.1955 11.6425L21.353 4.45624L28.938 12.0412V12.0425Z" fill="#6100FF"/>
</svg>
