<svg width="28" height="28" viewBox="0 0 28 28" fill="none" xmlns="http://www.w3.org/2000/svg">
    <path fill-rule="evenodd" clip-rule="evenodd" d="M17.2585 5.37783L22.5668 10.6862C23.5369 11.6603 23.5369 13.2354 22.5668 14.2095L19.3118 17.4645C19.1269 17.6554 18.9698 17.8714 18.8452 18.1062L17.0485 21.7112C16.687 22.4268 16.0051 22.9264 15.2139 23.0556C14.4226 23.1848 13.6172 22.928 13.0468 22.3645L9.93185 19.2495L6.16351 23.0178C6.00032 23.1831 5.77742 23.2756 5.54518 23.2745C5.31214 23.2798 5.08766 23.1866 4.92685 23.0178C4.76007 22.8553 4.66602 22.6324 4.66602 22.3995C4.66602 22.1666 4.76007 21.9437 4.92685 21.7812L8.69518 18.0128L5.58018 14.8978C5.01168 14.3297 4.75142 13.5227 4.88092 12.7295C5.01042 11.9363 5.51385 11.2539 6.23351 10.8962L9.83851 9.0995C10.0733 8.97492 10.2893 8.81781 10.4802 8.63283L13.7585 5.37783C14.7324 4.4294 16.2846 4.4294 17.2585 5.37783ZM17.9935 16.1345L21.2368 12.8912C21.49 12.6554 21.5056 12.2595 21.2718 12.0045L15.9752 6.70783C15.8588 6.58809 15.6989 6.52053 15.5318 6.52053C15.3648 6.52053 15.2049 6.58809 15.0885 6.70783L11.8452 9.95116C11.5043 10.2863 11.11 10.5623 10.6785 10.7678L7.07351 12.5762C6.89107 12.6609 6.76379 12.8321 6.73518 13.0312C6.69731 13.2282 6.76341 13.431 6.91018 13.5678L14.3768 21.0345C14.4873 21.1558 14.6445 21.2238 14.8085 21.2212C15.0479 21.2252 15.2673 21.0881 15.3685 20.8712L17.1768 17.3012C17.3824 16.8696 17.6584 16.4754 17.9935 16.1345Z" fill="#6100FF"/>
    </svg>
    