<svg width="12" height="12" viewBox="0 0 12 12" fill="none" xmlns="http://www.w3.org/2000/svg">
<path d="M7.30975 6.12493L9.78007 3.65555C9.84975 3.58587 9.90502 3.50315 9.94273 3.4121C9.98045 3.32106 9.99986 3.22347 9.99986 3.12493C9.99986 3.02638 9.98045 2.9288 9.94273 2.83776C9.90502 2.74671 9.84975 2.66399 9.78007 2.5943C9.71038 2.52462 9.62766 2.46934 9.53661 2.43163C9.44557 2.39392 9.34799 2.37451 9.24944 2.37451C9.15089 2.37451 9.05331 2.39392 8.96227 2.43163C8.87122 2.46934 8.7885 2.52462 8.71881 2.5943L6.24944 5.06462L3.78007 2.5943C3.63934 2.45357 3.44846 2.37451 3.24944 2.37451C3.05042 2.37451 2.85955 2.45357 2.71882 2.5943C2.57808 2.73503 2.49902 2.92591 2.49902 3.12493C2.49902 3.32395 2.57808 3.51482 2.71882 3.65555L5.18913 6.12493L2.71882 8.5943C2.64913 8.66399 2.59386 8.74671 2.55615 8.83776C2.51843 8.9288 2.49902 9.02638 2.49902 9.12493C2.49902 9.22347 2.51843 9.32106 2.55615 9.4121C2.59386 9.50315 2.64913 9.58587 2.71882 9.65555C2.7885 9.72524 2.87122 9.78051 2.96227 9.81822C3.05331 9.85594 3.15089 9.87535 3.24944 9.87535C3.34799 9.87535 3.44557 9.85594 3.53661 9.81822C3.62766 9.78051 3.71038 9.72524 3.78007 9.65555L6.24944 7.18524L8.71881 9.65555C8.7885 9.72524 8.87122 9.78051 8.96227 9.81822C9.05331 9.85594 9.15089 9.87535 9.24944 9.87535C9.34799 9.87535 9.44557 9.85594 9.53661 9.81822C9.62766 9.78051 9.71038 9.72524 9.78007 9.65555C9.84975 9.58587 9.90502 9.50315 9.94273 9.4121C9.98045 9.32106 9.99986 9.22347 9.99986 9.12493C9.99986 9.02638 9.98045 8.9288 9.94273 8.83776C9.90502 8.74671 9.84975 8.66399 9.78007 8.5943L7.30975 6.12493Z" fill="#3F3F3F"/>
</svg>
