<svg width="18" height="18" viewBox="0 0 18 18" fill="none" xmlns="http://www.w3.org/2000/svg">
<path fill-rule="evenodd" clip-rule="evenodd" d="M0.585786 0.585786C1.36684 -0.195262 2.63317 -0.195262 3.41421 0.585786L9 6.17157L14.5858 0.585786C15.3668 -0.195262 16.6332 -0.195262 17.4142 0.585786C18.1953 1.36683 18.1953 2.63317 17.4142 3.41421L11.8284 9L17.4142 14.5858C18.1953 15.3668 18.1953 16.6332 17.4142 17.4142C16.6332 18.1953 15.3668 18.1953 14.5858 17.4142L9 11.8284L3.41421 17.4142C2.63317 18.1953 1.36684 18.1953 0.585786 17.4142C-0.195262 16.6332 -0.195262 15.3668 0.585786 14.5858L6.17157 9L0.585786 3.41421C-0.195262 2.63317 -0.195262 1.36683 0.585786 0.585786Z" fill="#FF6D6D"/>
</svg>
