<svg width="14" height="17" viewBox="0 0 14 17" fill="none" xmlns="http://www.w3.org/2000/svg">
<path d="M13.0203 8.35381C13.187 8.2847 13.3385 8.1834 13.4661 8.0557C13.5938 7.92815 13.6951 7.77667 13.7642 7.60994C13.8333 7.44321 13.8689 7.26449 13.8689 7.084C13.8689 6.90352 13.8333 6.7248 13.7642 6.55807C13.6951 6.39134 13.5938 6.23986 13.4661 6.11231L7.97238 0.618626C7.84482 0.49093 7.69335 0.389629 7.52662 0.320512C7.35989 0.251396 7.18117 0.21582 7.00068 0.21582C6.82019 0.21582 6.64147 0.251396 6.47474 0.320512C6.30801 0.389629 6.15654 0.49093 6.02898 0.618626L0.535301 6.11231C0.277591 6.37002 0.132812 6.71955 0.132812 7.084C0.132812 7.44846 0.277591 7.79799 0.535301 8.0557C0.793011 8.31341 1.14254 8.45819 1.507 8.45819C1.87145 8.45819 2.22098 8.31341 2.47869 8.0557L5.62726 4.90542V15.3245C5.62726 15.6888 5.77196 16.0381 6.02952 16.2957C6.28709 16.5533 6.63643 16.698 7.00068 16.698C7.36493 16.698 7.71427 16.5533 7.97184 16.2957C8.2294 16.0381 8.3741 15.6888 8.3741 15.3245V4.90542L11.5227 8.0557C11.6502 8.1834 11.8017 8.2847 11.9684 8.35381C12.1352 8.42293 12.3139 8.45851 12.4944 8.45851C12.6749 8.45851 12.8536 8.42293 13.0203 8.35381Z" fill="white"/>
</svg>
