<svg width="33" height="32" viewBox="0 0 33 32" fill="none" xmlns="http://www.w3.org/2000/svg">
<path d="M30.2074 13.2938L20.2074 3.29378C20.0676 3.15384 19.8895 3.0585 19.6955 3.01981C19.5016 2.98112 19.3005 3.00082 19.1177 3.07641C18.9349 3.15201 18.7787 3.28011 18.6687 3.44451C18.5588 3.60892 18.5 3.80224 18.4999 4.00003V9.04378C15.2574 9.32128 11.6762 10.9088 8.72992 13.4075C5.18242 16.4175 2.97367 20.2963 2.50992 24.3288C2.47368 24.6423 2.53725 24.9592 2.69158 25.2345C2.84591 25.5098 3.08313 25.7294 3.36949 25.8621C3.65586 25.9947 3.97677 26.0337 4.28655 25.9734C4.59634 25.9131 4.87921 25.7566 5.09492 25.5263C6.46992 24.0625 11.3624 19.4338 18.4999 19.0263V24C18.5 24.1978 18.5588 24.3911 18.6687 24.5555C18.7787 24.7199 18.9349 24.848 19.1177 24.9236C19.3005 24.9992 19.5016 25.0189 19.6955 24.9802C19.8895 24.9416 20.0676 24.8462 20.2074 24.7063L30.2074 14.7063C30.3944 14.5188 30.4995 14.2648 30.4995 14C30.4995 13.7352 30.3944 13.4812 30.2074 13.2938ZM20.4999 21.5863V18C20.4999 17.7348 20.3946 17.4805 20.207 17.2929C20.0195 17.1054 19.7651 17 19.4999 17C15.9899 17 12.5712 17.9163 9.33867 19.725C7.69235 20.6503 6.15844 21.7627 4.76742 23.04C5.49242 20.06 7.31992 17.2263 10.0237 14.9325C12.9262 12.4713 16.4687 11 19.4999 11C19.7651 11 20.0195 10.8947 20.207 10.7071C20.3946 10.5196 20.4999 10.2652 20.4999 10V6.41503L28.0862 14L20.4999 21.5863Z" fill="#6100FF"/>
</svg>
