<svg width="48" height="48" viewBox="0 0 48 48" fill="none" xmlns="http://www.w3.org/2000/svg">
<path d="M21 40.5C21 40.8978 20.842 41.2794 20.5607 41.5607C20.2794 41.842 19.8978 42 19.5 42H9C8.20435 42 7.44129 41.6839 6.87868 41.1213C6.31607 40.5587 6 39.7957 6 39V9C6 8.20435 6.31607 7.44129 6.87868 6.87868C7.44129 6.31607 8.20435 6 9 6H19.5C19.8978 6 20.2794 6.15804 20.5607 6.43934C20.842 6.72064 21 7.10218 21 7.5C21 7.89782 20.842 8.27936 20.5607 8.56066C20.2794 8.84196 19.8978 9 19.5 9H9V39H19.5C19.8978 39 20.2794 39.158 20.5607 39.4393C20.842 39.7206 21 40.1022 21 40.5ZM41.5612 22.9387L34.0613 15.4387C33.7798 15.1573 33.398 14.9992 33 14.9992C32.602 14.9992 32.2202 15.1573 31.9387 15.4387C31.6573 15.7202 31.4992 16.102 31.4992 16.5C31.4992 16.898 31.6573 17.2798 31.9387 17.5613L36.8794 22.5H19.5C19.1022 22.5 18.7206 22.658 18.4393 22.9393C18.158 23.2206 18 23.6022 18 24C18 24.3978 18.158 24.7794 18.4393 25.0607C18.7206 25.342 19.1022 25.5 19.5 25.5H36.8794L31.9387 30.4387C31.6573 30.7202 31.4992 31.102 31.4992 31.5C31.4992 31.898 31.6573 32.2798 31.9387 32.5613C32.2202 32.8427 32.602 33.0008 33 33.0008C33.398 33.0008 33.7798 32.8427 34.0613 32.5613L41.5612 25.0613C41.7007 24.9219 41.8114 24.7565 41.8868 24.5744C41.9623 24.3923 42.0012 24.1971 42.0012 24C42.0012 23.8029 41.9623 23.6077 41.8868 23.4256C41.8114 23.2435 41.7007 23.0781 41.5612 22.9387Z" fill="#343330"/>
</svg>
